<?xml version="1.0" encoding="UTF-8"?>
<svg width="47px" height="47px" viewBox="0 0 47 47" version="1.1" xmlns="http://www.w3.org/2000/svg" xmlns:xlink="http://www.w3.org/1999/xlink">
    <!-- Generator: Sketch 45.2 (43514) - http://www.bohemiancoding.com/sketch -->
    <title>db - purple</title>
    <desc>Created with Sketch.</desc>
    <defs></defs>
    <g id="Page-1" stroke="none" stroke-width="1" fill="none" fill-rule="evenodd">
        <g id="Artboard-Copy" transform="translate(-128.000000, -65.000000)">
            <g id="db---purple" transform="translate(129.000000, 66.000000)">
                <path d="M22.3865959,20.3829996 C24.5231589,20.3829996 26.5188995,20.1891796 28.375332,19.8015395 C30.2317645,19.4138995 31.6975284,18.8415247 32.7695955,18.0844152 L32.7695955,20.3829996 C32.7695955,21.0053436 32.3047303,21.582261 31.376514,22.1137519 C30.4482978,22.6452428 29.1869534,23.0677099 27.5909665,23.3781248 C25.9964939,23.6885397 24.261199,23.8445042 22.3865959,23.8445042 C20.5119928,23.8445042 18.7766978,23.6885397 17.180711,23.3781248 C15.5862384,23.0661957 14.324894,22.6452428 13.3951635,22.1137519 C12.4669473,21.582261 12.0020821,21.0053436 12.0020821,20.3829996 L12.0020821,18.0844152 C13.0741491,18.8415247 14.5399131,19.4138995 16.3963456,19.8015395 C18.2542923,20.1891796 20.2500329,20.3829996 22.3865959,20.3829996 L22.3865959,20.3829996 L22.3865959,20.3829996 Z M22.3865959,30.7659992 C24.5231589,30.7659992 26.5188995,30.5721792 28.375332,30.1845391 C30.2317645,29.7968991 31.6975284,29.2245243 32.7695955,28.4674148 L32.7695955,30.7659992 C32.7695955,31.3883432 32.3047303,31.9652607 31.376514,32.4967515 C30.4482978,33.0282424 29.1869534,33.4507095 27.5909665,33.7611244 C25.9964939,34.0715393 24.261199,34.2275038 22.3865959,34.2275038 C20.5119928,34.2275038 18.7766978,34.0715393 17.180711,33.7611244 C15.5847242,33.4507095 14.3233798,33.0282424 13.3951635,32.4967515 C12.4669473,31.9652607 12.0020821,31.3883432 12.0020821,30.7659992 L12.0020821,28.4674148 C13.0741491,29.2245243 14.5399131,29.7968991 16.3963456,30.1845391 C18.2542923,30.5721792 20.2500329,30.7659992 22.3865959,30.7659992 L22.3865959,30.7659992 L22.3865959,30.7659992 Z M22.3865959,25.5752565 C24.5231589,25.5752565 26.5188995,25.3814365 28.375332,24.9937964 C30.2317645,24.6061564 31.6975284,24.0337816 32.7695955,23.2766721 L32.7695955,25.5752565 C32.7695955,26.1976005 32.3047303,26.774518 31.376514,27.3060088 C30.4482978,27.8374997 29.1869534,28.2584526 27.5909665,28.5703817 C25.9964939,28.8807966 24.261199,29.0352469 22.3865959,29.0352469 C20.5119928,29.0352469 18.7766978,28.8792824 17.180711,28.5688675 C15.5847242,28.2584526 14.3233798,27.8359855 13.3951635,27.3044946 C12.4669473,26.7730037 12.0020821,26.1960863 12.0020821,25.5737423 L12.0020821,23.2766721 C13.0741491,24.0337816 14.5399131,24.6061564 16.3963456,24.9937964 C18.2542923,25.3814365 20.2500329,25.5752565 22.3865959,25.5752565 L22.3865959,25.5752565 L22.3865959,25.5752565 Z M22.3865959,10 C24.261199,10 25.9964939,10.1559646 27.5924808,10.4663794 C29.1884676,10.7767943 30.449812,11.1992614 31.3780282,11.7307523 C32.3062445,12.2622432 32.7711097,12.8391606 32.7711097,13.4615046 L32.7711097,15.1922569 C32.7711097,15.8146009 32.3062445,16.3915184 31.3780282,16.9230092 C30.449812,17.4545001 29.1884676,17.875453 27.5924808,18.1873821 C25.9964939,18.497797 24.261199,18.6522473 22.3865959,18.6522473 C20.5119928,18.6522473 18.7766978,18.4962827 17.180711,18.1858679 C15.5847242,17.875453 14.3233798,17.4529859 13.3951635,16.921495 C12.4669473,16.3900041 12.0020821,15.8130867 12.0020821,15.1907427 L12.0020821,13.4615046 C12.0020821,12.8391606 12.4669473,12.2622432 13.3951635,11.7307523 C14.3233798,11.1992614 15.5847242,10.7767943 17.180711,10.4663794 C18.7766978,10.1559646 20.5119928,10 22.3865959,10 L22.3865959,10 L22.3865959,10 Z" id="Shape" fill="#968BCC" fill-rule="nonzero"></path>
                <circle id="Oval" stroke="#968BCC" stroke-width="2" cx="22.5" cy="22.5" r="22.5"></circle>
            </g>
        </g>
    </g>
</svg>