<?xml version="1.0" encoding="UTF-8"?>
<svg width="47px" height="47px" viewBox="0 0 47 47" version="1.1" xmlns="http://www.w3.org/2000/svg" xmlns:xlink="http://www.w3.org/1999/xlink">
    <!-- Generator: Sketch 45.2 (43514) - http://www.bohemiancoding.com/sketch -->
    <title>flavor-red</title>
    <desc>Created with Sketch.</desc>
    <defs></defs>
    <g id="Page-1" stroke="none" stroke-width="1" fill="none" fill-rule="evenodd">
        <g id="Artboard-Copy" transform="translate(-513.000000, -575.000000)">
            <g id="flavor-red" transform="translate(514.000000, 576.000000)">
                <g id="Group" transform="translate(22.500000, 22.403846) scale(-1, 1) rotate(-180.000000) translate(-22.500000, -22.403846) translate(10.000000, 9.903846)" fill-rule="nonzero" fill="#EE6B63">
                    <path d="M2.16346154,24.5032051 C1.36217949,24.2147436 0.560897436,23.3653846 0.336538462,22.5480769 C0.112179487,21.7307692 0.0961538462,9.66346154 0.320512821,8.84615385 C0.528846154,8.125 1.13782051,7.35576923 1.82692308,6.98717949 C2.27564103,6.73076923 3.18910256,6.71474359 12.5,6.71474359 L22.6762821,6.71474359 L23.3814103,7.11538462 C23.8621795,7.38782051 24.2147436,7.75641026 24.4711538,8.23717949 L24.8557692,8.94230769 L24.8076923,15.849359 L24.7596154,22.7564103 L24.3269231,23.4134615 C23.4775641,24.7115385 23.9583333,24.6634615 12.7403846,24.6955128 C4.47115385,24.7275641 2.69230769,24.6955128 2.16346154,24.5032051 Z M22.5641026,22.5641026 L22.9166667,22.3237179 L22.9166667,16.6987179 C22.9166667,11.6826923 22.8846154,11.0416667 22.6442308,10.7692308 C22.4038462,10.4967949 21.875,10.4807692 12.5480769,10.4807692 C2.93269231,10.4807692 2.72435897,10.4807692 2.40384615,10.8012821 C2.09935897,11.1057692 2.08333333,11.3301282 2.08333333,16.650641 C2.08333333,21.9711538 2.09935897,22.1955128 2.40384615,22.5 C2.72435897,22.8205128 2.93269231,22.8205128 12.4679487,22.8205128 C21.025641,22.8205128 22.2435897,22.7884615 22.5641026,22.5641026 Z" id="Shape"></path>
                    <path d="M0.416666667,5.32051282 C0.208333333,5.04807692 0.16025641,4.50320513 0.16025641,2.93269231 C0.16025641,1.12179487 0.192307692,0.865384615 0.496794872,0.480769231 L0.817307692,0.0641025641 L12.5160256,0.0641025641 C23.9903846,0.0641025641 24.1987179,0.0641025641 24.5192308,0.384615385 C24.8076923,0.673076923 24.8397436,0.913461538 24.8397436,2.91666667 C24.8397436,4.87179487 24.8076923,5.17628205 24.5512821,5.40064103 C24.2788462,5.65705128 23.2051282,5.67307692 12.4519231,5.67307692 L0.657051282,5.67307692 L0.416666667,5.32051282 Z M22.6602564,3.73397436 C22.9326923,3.50961538 23.0769231,3.25320513 23.0769231,2.93269231 C23.0769231,1.89102564 21.7948718,1.44230769 21.1698718,2.24358974 C20.7371795,2.80448718 20.7532051,3.18910256 21.2339744,3.66987179 C21.7147436,4.15064103 22.099359,4.16666667 22.6602564,3.73397436 Z M14.4230769,3.42948718 L14.4230769,2.94871795 L8.25320513,2.94871795 L2.08333333,2.94871795 L2.08333333,3.42948718 L2.08333333,3.91025641 L8.25320513,3.91025641 L14.4230769,3.91025641 L14.4230769,3.42948718 Z" id="Shape"></path>
                </g>
                <circle id="Oval" stroke="#EE6B63" stroke-width="2" cx="22.5" cy="22.5" r="22.5"></circle>
            </g>
        </g>
    </g>
</svg>