<?xml version="1.0" encoding="UTF-8"?>
<svg width="47px" height="47px" viewBox="0 0 47 47" version="1.1" xmlns="http://www.w3.org/2000/svg" xmlns:xlink="http://www.w3.org/1999/xlink">
    <!-- Generator: Sketch 45.2 (43514) - http://www.bohemiancoding.com/sketch -->
    <title>image- purple</title>
    <desc>Created with Sketch.</desc>
    <defs></defs>
    <g id="Page-1" stroke="none" stroke-width="1" fill="none" fill-rule="evenodd">
        <g id="Artboard-Copy" transform="translate(-403.000000, -65.000000)">
            <g id="image--purple" transform="translate(404.000000, 66.000000)">
                <circle id="Oval-2" fill="#968BCC" cx="22.4837979" cy="22.4837979" r="12.4837979"></circle>
                <path d="M14.2146206,22.6567406 C14.2146206,22.4144758 14.2264797,22.1772935 14.2434213,21.9367229 C14.2501979,21.8232142 14.2654454,21.7097055 14.2756103,21.5961968 C14.2789987,21.5707845 14.282387,21.5453721 14.282387,21.5250422 C14.2959402,21.3878152 14.2756103,21.5792553 14.272222,21.5928085 C14.2857753,21.5284305 14.2891636,21.4657466 14.3010227,21.4013685 C14.408417,20.7186871 14.5960747,20.0510808 14.8600953,19.4124255 C14.9278617,19.2497862 14.804188,19.5360991 14.8634836,19.4090371 L14.93125,19.2599511 C14.9820748,19.1532191 15.0312054,19.0481812 15.0837243,18.9448375 C15.2870235,18.5433217 15.5191233,18.1570534 15.781718,17.7894208 C15.8427077,17.6996304 15.920639,17.6200049 15.973158,17.5268261 C15.97429,17.5256993 15.9754195,17.5245699 15.9765463,17.5234378 C16.015512,17.472613 16.0544776,17.4268707 16.0951375,17.3777401 C16.3836175,17.0352202 16.6949231,16.7125944 17.0269251,16.4120693 L17.2539424,16.2155468 L17.3945577,16.0969556 C17.4453824,16.0596841 17.6114101,15.9563404 17.4165817,16.0800141 C17.5978568,15.9665054 17.7672727,15.8208077 17.9485478,15.7039107 C18.326761,15.4567629 18.7225577,15.2376308 19.1327651,15.048271 C19.1818958,15.0279411 19.2310264,15.0025287 19.280157,14.9805046 C19.4580437,14.9025733 19.1564834,15.0313294 19.2852395,14.9771163 C19.3936657,14.9347623 19.5054802,14.88902 19.6139064,14.8500544 C20.1001301,14.6721676 20.5999071,14.5349407 21.1064608,14.4434561 C21.2335227,14.4180437 21.3605847,14.4027963 21.4893408,14.3824664 C21.2419935,14.4248204 21.4571518,14.3858547 21.5181415,14.3790781 L21.7383822,14.357054 C22.0094477,14.3333358 22.2805132,14.3231708 22.5515787,14.3231708 C22.9717302,14.3231708 23.3681635,13.9572324 23.3512219,13.5235276 C23.3439469,13.0861595 22.9906554,12.7336181 22.5532728,12.7272727 C20.5132238,12.7284181 18.5229167,13.357154 16.8524267,14.5281641 C15.186666,15.70919 13.9169553,17.3663101 13.2099841,19.2819752 C12.8144945,20.366652 12.612645,21.5123776 12.61364,22.6669055 C12.61364,23.0853629 12.9812726,23.4817962 13.4098949,23.4631604 C13.8503763,23.4360539 14.2146206,23.107387 14.2146206,22.6567406 L14.2146206,22.6567406 Z M25.3435533,22.6567406 C25.342392,22.7880289 25.3350425,22.9191894 25.3215292,23.0497856 C25.3045876,23.2276723 25.3554124,22.8549572 25.3249175,23.0277615 C25.2946356,23.2007676 25.2533269,23.3716613 25.2012439,23.5393976 C25.1724432,23.6274939 25.1267009,23.7155902 25.1046768,23.8053806 C25.1521133,23.6308822 25.1555016,23.6867895 25.1300892,23.7443909 L25.0690995,23.8714528 C24.9911681,24.0239272 24.9030718,24.1696249 24.8081989,24.3119343 C24.7827865,24.3458174 24.7472092,24.3864773 24.7251851,24.4254429 C24.8353055,24.2373913 24.7760099,24.3610649 24.7370442,24.4085013 C24.6862194,24.4677969 24.6353947,24.5237042 24.5811816,24.5779173 C24.52793,24.6337296 24.4719545,24.686878 24.4134598,24.7371683 L24.3118102,24.8286529 L24.2406555,24.8896426 L24.3118102,24.8371237 C24.1762775,24.9286083 24.0458272,25.0200929 23.9035178,25.1014125 C23.8357515,25.1403782 23.7645968,25.1759555 23.6985246,25.2081446 C23.6375348,25.2369453 23.5104729,25.2589693 23.7154661,25.2047562 C23.6629472,25.2183095 23.6138166,25.2471102 23.5629918,25.265746 C23.4071291,25.3216532 23.2478782,25.3673955 23.0852389,25.4012787 L22.9429295,25.4249969 C22.8073967,25.4504093 22.9954484,25.414832 23.0106959,25.4182203 C22.9107405,25.4097495 22.7938435,25.4385502 22.6904998,25.4419385 C22.5180758,25.4468824 22.345511,25.4412245 22.1737812,25.4249969 C21.9958944,25.4097495 22.3686095,25.457186 22.1941111,25.4283853 L22.0992381,25.4114437 C21.9117111,25.3787441 21.7278563,25.3276733 21.5503305,25.2589693 L21.4402102,25.2149212 C21.3385606,25.181038 21.6265677,25.3047116 21.4791758,25.2301686 C21.3096442,25.1511034 21.1460181,25.0599484 20.9895638,24.957409 C20.9251857,24.915055 20.8658901,24.8608419 20.8032063,24.8218762 C21.0065054,24.9455499 20.8032063,24.8150996 20.7489932,24.7693573 C20.6124212,24.6443436 20.4845001,24.5101962 20.3661131,24.3678415 C20.3271475,24.3254875 20.3085117,24.2628036 20.4050788,24.4220546 C20.3796664,24.383089 20.3474774,24.3475116 20.3237592,24.3085459 C20.2763227,24.2441679 20.2390512,24.1797898 20.1950031,24.1137176 C20.1510792,24.0406996 20.1098274,23.9661073 20.0713294,23.8900886 L20.0188105,23.7833565 C20.003563,23.7545558 19.9933981,23.7274493 19.9798448,23.6986486 L20.003563,23.7579442 C19.9510441,23.6105523 19.8985252,23.4614663 19.8595595,23.3089919 C19.8375354,23.224284 19.8205938,23.139576 19.8053464,23.0497856 C19.7917931,22.9752425 19.8155114,22.9006995 19.8087347,23.0955279 C19.812123,23.0311498 19.7951814,22.9650776 19.7917931,22.9006995 C19.7784153,22.6877963 19.782949,22.4741455 19.8053464,22.2620015 C19.8205938,22.0925855 19.7765457,22.4178641 19.7985698,22.3043554 C19.8155114,22.2027059 19.832453,22.1010563 19.8595595,21.9994068 C19.8985252,21.8469324 19.9476558,21.6995406 20.003563,21.5504545 C20.0645528,21.3912036 19.9222434,21.7198705 19.9967864,21.5673961 L20.0476112,21.4606641 C20.0933535,21.3725678 20.1390958,21.2844715 20.1916147,21.1963752 C20.2305804,21.1286089 20.2729344,21.0642308 20.3203708,20.9998528 C20.3440891,20.9659696 20.3796664,20.9270039 20.4016905,20.8880382 C20.3932197,20.8982032 20.2763227,21.0354301 20.3627248,20.938863 C20.4863985,20.8033303 20.6066838,20.6644092 20.7456048,20.5390414 C20.7981238,20.4932991 21.0065054,20.3628489 20.7981238,20.4882166 C20.8625018,20.4475568 20.9217974,20.3950379 20.9844813,20.3526839 C21.1420381,20.2493402 21.3063716,20.1646322 21.4757875,20.0782301 C21.5926845,20.0223228 21.4249627,20.1002542 21.4147978,20.1036425 C21.4571518,20.0934775 21.5028941,20.0697593 21.5469422,20.0528177 C21.7087234,19.9902781 21.8760624,19.9431963 22.0467192,19.9122025 C22.0780207,19.9048768 22.1096898,19.8992216 22.1415921,19.8952609 C22.1512054,19.8942453 22.1608063,19.8931158 22.1703928,19.8918726 C22.3330321,19.8766251 22.4990597,19.8664602 22.661699,19.8698485 C22.7633486,19.8732368 22.8582215,19.8800134 22.9564828,19.8918726 C23.0310258,19.8986492 23.0378024,19.9376149 22.8887164,19.8800134 C22.9463178,19.9020375 23.0208608,19.9020375 23.0818506,19.9155908 C23.2648198,19.9545565 23.4494831,20.0087696 23.6273699,20.0748418 C23.7120778,20.108725 23.7510435,20.1747972 23.6104283,20.0646768 C23.6409231,20.0900892 23.7019129,20.1070308 23.7374902,20.1256665 C23.9192172,20.2129689 24.0922348,20.3173467 24.2542088,20.4373919 C24.2796212,20.4543335 24.3050336,20.4763575 24.3287518,20.4932991 C24.1254527,20.3764021 24.2965628,20.4729692 24.3456934,20.5153232 C24.4846145,20.6339143 24.6167589,20.7660588 24.7353501,20.9083682 C24.7793982,20.9591929 24.8386938,21.0777841 24.7251851,20.8914266 C24.7505975,20.9303922 24.7827865,20.9659696 24.8081989,21.0049352 C24.8641062,21.0862549 24.9217076,21.1709629 24.9708382,21.2590591 C25.021663,21.3488496 25.0690995,21.4369459 25.1131476,21.5301246 C25.1233126,21.5538429 25.1368658,21.5928085 25.1521133,21.6148326 L25.1267009,21.5538429 L25.1588899,21.6419391 C25.2215738,21.8198259 25.2757869,22.0044892 25.3113642,22.1925409 C25.3181409,22.2348949 25.3215292,22.2908022 25.3350825,22.3331562 C25.3323277,22.3104769 25.328938,22.2878792 25.3249175,22.2653898 L25.3283058,22.3162146 C25.3384708,22.4263349 25.3435533,22.5432319 25.3435533,22.6550464 C25.3469416,23.0751979 25.7077975,23.4716312 26.1398082,23.4529955 C26.5771907,23.4466501 26.9304822,23.0941087 26.9377572,22.6567406 C26.919089,20.8011965 25.7489746,19.1527674 24.0034732,18.5229918 C22.3516679,17.9198711 20.3508657,18.4586138 19.2310264,19.8173295 C18.6245173,20.5509005 18.270438,21.4098393 18.1925067,22.3585685 C18.0644577,24.16406 19.066786,25.8604635 20.7100275,26.6193793 C21.5808254,27.0090359 22.5143072,27.1191563 23.4545656,26.9378812 C25.4706152,26.5516129 26.9242039,24.6795668 26.9377572,22.6516581 C26.9411455,22.2348949 26.5701246,21.8384616 26.1415023,21.8554032 C25.7040391,21.8661841 25.3524804,22.2192356 25.3435533,22.6567406 L25.3435533,22.6567406 Z" id="Shape" fill="#FFFFFF" fill-rule="nonzero"></path>
                <circle id="Oval" stroke="#968BCC" stroke-width="2" cx="22.5" cy="22.5" r="22.5"></circle>
            </g>
        </g>
    </g>
</svg>