<?xml version="1.0" encoding="UTF-8"?>
<svg width="47px" height="47px" viewBox="0 0 47 47" version="1.1" xmlns="http://www.w3.org/2000/svg" xmlns:xlink="http://www.w3.org/1999/xlink">
    <!-- Generator: Sketch 45.2 (43514) - http://www.bohemiancoding.com/sketch -->
    <title>policy-red</title>
    <desc>Created with Sketch.</desc>
    <defs></defs>
    <g id="Page-1" stroke="none" stroke-width="1" fill="none" fill-rule="evenodd">
        <g id="Artboard-Copy" transform="translate(-183.000000, -575.000000)">
            <g id="policy-red" transform="translate(184.000000, 576.000000)">
                <path d="M23.167989,10 L14.5656567,10 C14.3821735,9.99962748 14.2061383,10.0725409 14.076656,10.2025432 C13.9471738,10.3325455 13.8749664,10.5088715 13.8760744,10.6923518 L13.8760744,34.2323134 C13.8760744,34.6089528 14.1848633,34.9246652 14.5656567,34.9246652 L30.7866284,34.9246652 C30.9701116,34.9250377 31.1461468,34.8521242 31.2756291,34.722122 C31.4051114,34.5921197 31.4773187,34.4157937 31.4762108,34.2323134 L31.4762108,14.5002868 L31.4762108,18.3082217 L30.0915071,16.9235181 L30.0915071,33.5399616 L15.260778,33.5399616 L15.260778,11.3847036 L24.5526927,11.3847036 L23.167989,10 Z" id="Shape" fill="#EE6B63" fill-rule="nonzero"></path>
                <path d="M23.167989,10 L31.4762108,18.3082217 L24.5388456,18.3082217 C23.7836293,18.3036858 23.172525,17.6925815 23.167989,16.9373651 L23.167989,10 Z" id="Shape" fill="#EE6B63" fill-rule="nonzero"></path>
                <g id="Group" transform="translate(17.000000, 20.000000)" fill-rule="nonzero" fill="#EE6B63">
                    <path d="M8.68513682,10.4426689 C8.23728446,9.74432554 6.55783811,6.46373594 6.55783811,6.30133052 C6.55783811,6.20388726 6.82974847,6.09020346 7.16563774,6.05772238 L7.75744264,6.00900075 L7.83741628,3.00450037 L7.91738992,0 L8.87707354,0 L9.83675717,0 L9.9167308,2.92329766 L9.99670444,5.84659532 L10.5245304,5.89531695 C10.8124355,5.92779804 11.0843459,6.04148183 11.1323301,6.17140618 C11.2282984,6.39877377 9.1489839,10.6375554 8.94105245,10.6375554 C8.87707354,10.6375554 8.76511045,10.5401121 8.68513682,10.4426689 Z" id="Shape"></path>
                    <path d="M1.3595518,10.9635267 C1.31156762,10.8498429 1.26358344,9.46939682 1.24758871,7.91030474 L1.19960453,5.06820979 L0.60779963,5.01948816 C0.255915634,4.98700708 0,4.87332328 0,4.75963948 C0,4.46730971 2.1272987,0.553338956 2.33523016,0.488376786 C2.55915634,0.407174073 4.68645504,4.6134746 4.57449195,4.90580436 C4.52650777,5.0357287 4.25459741,5.1494125 3.96669232,5.18189359 L3.43886633,5.23061522 L3.35889269,8.15391288 L3.27891906,11.0772105 L2.35122488,11.1259322 C1.7114358,11.1584133 1.40753598,11.1096916 1.3595518,10.9635267 Z" id="Shape"></path>
                </g>
                <circle id="Oval" stroke="#EE6B63" stroke-width="2" cx="22.5" cy="22.5" r="22.5"></circle>
            </g>
        </g>
    </g>
</svg>