<?xml version="1.0" encoding="UTF-8"?>
<svg width="47px" height="47px" viewBox="0 0 47 47" version="1.1" xmlns="http://www.w3.org/2000/svg" xmlns:xlink="http://www.w3.org/1999/xlink">
    <!-- Generator: Sketch 45.2 (43514) - http://www.bohemiancoding.com/sketch -->
    <title>VPN- gray</title>
    <desc>Created with Sketch.</desc>
    <defs></defs>
    <g id="Page-1" stroke="none" stroke-width="1" fill="none" fill-rule="evenodd">
        <g id="Artboard-Copy" transform="translate(-458.000000, -345.000000)">
            <g id="VPN--gray" transform="translate(459.000000, 346.000000)">
                <circle id="Oval" stroke="#78828B" stroke-width="2" cx="22.5" cy="22.5" r="22.5"></circle>
                <g id="Group-5" transform="translate(8.000000, 18.000000)" fill-rule="nonzero" fill="#78828B">
                    <path d="M0.0750060125,9.34574916 C0.135010823,9.19573713 0.870069745,7.26058201 1.72513829,5.02540284 C2.58020683,2.80522487 3.34526816,0.795063733 3.43527537,0.570045695 L3.6002886,0.150012025 L5.14541246,0.150012025 L6.70553752,0.150012025 L6.94555676,0.870069745 C7.06556638,1.26010101 7.59060847,2.68521525 8.10064935,4.05032468 C9.40575397,7.57560726 10.0508057,9.36075036 10.0508057,9.49576118 C10.0508057,9.55576599 9.42075517,9.6007696 8.64069264,9.6007696 C7.41059404,9.6007696 7.2155784,9.5707672 7.14057239,9.34574916 C6.90055315,8.44567701 5.20541727,2.91023329 5.17541486,2.88023088 C5.13041126,2.82022607 4.90539322,3.51028139 3.75030063,7.1705748 L2.9852393,9.6007696 L1.47011785,9.6007696 C0.105008418,9.6007696 -0.030002405,9.5707672 0.0750060125,9.34574916 Z" id="Shape" transform="translate(5.048941, 4.875391) scale(-1, 1) rotate(-180.000000) translate(-5.048941, -4.875391) "></path>
                    <path d="M11.1008899,4.86038961 L11.1008899,0.12000962 L12.5260041,0.12000962 L13.9511183,0.12000962 L13.9511183,1.90515272 L13.9511183,3.67529461 L15.4962422,3.75030063 C17.1463745,3.82530664 17.6414141,3.99031987 18.3464707,4.72537879 C19.261544,5.70045695 19.2915464,7.65061328 18.3914743,8.64069264 C17.701419,9.42075517 17.3863937,9.48075998 14.146134,9.54076479 L11.1008899,9.6007696 L11.1008899,4.86038961 Z M15.9612795,7.29058442 C16.2763047,6.85554954 16.2613035,6.37551106 15.9462783,5.9854798 C15.7362614,5.74546056 15.481241,5.65545334 14.8511905,5.62545094 L14.0261243,5.59544853 L13.9811207,6.6155303 L13.9361171,7.62061087 L14.8361893,7.62061087 C15.6012506,7.62061087 15.7662638,7.57560726 15.9612795,7.29058442 Z" id="Shape" transform="translate(15.075416, 4.860390) scale(-1, 1) rotate(-180.000000) translate(-15.075416, -4.860390) "></path>
                    <polygon id="Shape" transform="translate(25.202020, 4.875391) scale(-1, 1) rotate(-180.000000) translate(-25.202020, -4.875391) " points="20.7016595 4.87539081 20.7016595 0.150012025 22.0517677 0.150012025 23.4018759 0.150012025 23.4318783 2.71521765 23.4768819 5.28042328 25.2020202 2.71521765 26.9271585 0.150012025 28.3222703 0.150012025 29.702381 0.150012025 29.702381 4.87539081 29.702381 9.6007696 28.2772667 9.6007696 26.8521525 9.6007696 26.8221501 7.06556638 26.7771465 4.54536436 25.0820106 7.06556638 23.3868747 9.6007696 22.0517677 9.6007696 20.7016595 9.6007696"></polygon>
                </g>
            </g>
        </g>
    </g>
</svg>