<?xml version="1.0" standalone="no"?>
<!DOCTYPE svg PUBLIC "-//W3C//DTD SVG 1.1//EN" "http://www.w3.org/Graphics/SVG/1.1/DTD/svg11.dtd" >
<svg xmlns="http://www.w3.org/2000/svg">
<metadata>Generated by IcoMoon</metadata>
<defs>
<font id="icomoon" horiz-adv-x="1024">
<font-face units-per-em="1024" ascent="960" descent="-64" />
<missing-glyph horiz-adv-x="1024" />
<glyph unicode="&#x20;" horiz-adv-x="512" d="" />
<glyph unicode="&#xe900;" glyph-name="dssg-add" d="M507.733 960c-280.405 0-507.733-227.328-507.733-507.733s227.328-507.733 507.733-507.733c280.405 0 507.733 227.328 507.733 507.733s-227.328 507.733-507.733 507.733zM507.733 12.22c-243.029 0-440.047 197.018-440.047 440.047s197.018 440.047 440.047 440.047c242.995 0 440.047-197.018 440.047-440.047 0-242.995-197.052-440.047-440.047-440.047zM733.867 477.867h-192v192h-64v-192h-192v-64h192v-192h64v192h192v64z" />
<glyph unicode="&#xe901;" glyph-name="dssg-authority" d="M511.158 807.1c105.395 0 190.847-79.74 190.847-178.112h95.42c0 147.544-128.162 267.165-286.267 267.165s-286.263-119.62-286.263-267.165h95.418c0 98.373 85.453 178.112 190.845 178.112zM829.234 569.598h-636.147c-35.135 0-63.616-26.587-63.616-59.358v-445.303c0-32.804 28.481-59.391 63.616-59.391h636.152c35.125-0.003 63.612 26.587 63.612 59.39v445.304c-0.001 32.77-28.487 59.358-63.617 59.358zM839.647 63.555c0-6.754-5.526-12.28-12.28-12.28h-629.397c-6.754 0-12.28 5.526-12.28 12.28v439.045c0 6.753 5.526 12.28 12.28 12.28h629.398c6.753 0 12.28-5.527 12.28-12.28v-439.045zM511.163 421.15l-0.005 0.006c-52.714 0-95.42-39.855-95.42-89.055 0-32.866 19.322-61.289 47.712-76.694v-84.737c0-25.592 21.367-46.374 47.713-46.374 26.337 0 47.713 20.782 47.713 46.374v84.737c28.388 15.405 47.707 43.828 47.707 76.694 0 49.195-42.706 89.050-95.42 89.050z" />
<glyph unicode="&#xe902;" glyph-name="dssg-close-modal" d="M512 931.499c-266.94 0-483.669-216.405-483.669-483.328 0-267.247 216.747-483.669 483.669-483.669 266.752 0 483.669 216.422 483.669 483.669 0 266.923-216.917 483.328-483.669 483.328zM512 30.72c-230.4 0-417.451 186.709-417.451 417.451 0 230.4 187.051 417.109 417.451 417.109 230.212 0 417.451-186.709 417.451-417.109 0-230.741-187.238-417.451-417.451-417.451zM727.467 258.901c-14.165-16.213-33.963-24.405-53.931-24.405-16.896 0-33.621 5.803-47.292 17.749l-112.794 99.157-109.756-102.571c-13.824-12.8-31.215-19.285-48.794-19.285-19.115 0-38.229 7.68-52.395 22.869-27.136 28.843-25.429 74.257 3.413 101.205l99.328 92.843-102.059 89.6c-29.696 26.112-32.768 71.339-6.656 101.035 14.165 16.213 33.963 24.405 53.931 24.405 16.879 0 33.621-5.803 47.275-17.749l112.811-99.157 109.739 102.571c13.824 12.8 31.403 19.285 48.811 19.285 19.285 0 38.212-7.663 52.378-22.699 27.153-28.996 25.429-74.394-3.396-101.359l-99.328-92.843 102.042-89.6c29.713-26.112 32.768-71.356 6.673-101.052z" />
<glyph unicode="&#xe903;" glyph-name="dssg-delete" d="M593.638 528.948h-408.488v-163.286h654.015v163.286h-245.527zM449.649 945.538h-435.776v-435.933h62.274v373.659h373.502zM574.351 945.538h435.776v-435.933h-62.274v373.659h-373.502zM449.649-50.995h-435.776v435.933h62.274v-373.66h373.502zM574.351-50.995h435.776v435.933h-62.274v-373.66h-373.502z" />
<glyph unicode="&#xe904;" glyph-name="dssg-edit" d="M903.919 448.341c-23.996 0-43.588-19.593-43.588-43.588v-217.941c0-87.211-64.068-87.245-64.068-87.245s-458.786-0.307-545.963-0.307c-87.177 0-87.177 87.211-87.177 87.211v523.059c0 87.177 87.177 87.177 87.177 87.177h479.437c23.996 0 43.622 19.627 43.622 43.588 0 23.996-19.627 43.588-43.622 43.588h-174.319c-1.946 0-3.857-0.137-5.769-0.41-141.449-0.341-348.535-0.785-397.585-0.307-76.117 0.717-75.742-86.391-75.742-86.391l0.273-701.338c0 0-0.683-83.319 86.528-83.319 87.177 0 697.207 0.375 697.207 0.375s87.211 0 87.211 87.142v305.118c0 23.996-19.593 43.588-43.622 43.588zM821.726 690.278l-3.618 3.652c-13.244 13.21-34.85 13.21-48.026 0l-376.218-376.183c-13.21-13.21-13.21-34.85 0-48.060l3.618-3.618c13.21-13.244 34.85-13.244 48.060 0l376.183 376.149c13.244 13.244 13.244 34.85 0 48.060z" />
<glyph unicode="&#xe905;" glyph-name="dssg-help" horiz-adv-x="1366" d="M939.008 266.65h-570.266v558.114h97.075v-51.985h-45.056v-454.11h466.261v454.11h-48.538v51.985h100.523v-558.114zM588.8 677.956h-46.080c-1.297 43.964 12.595 75.947 42.018 96.017 20.036 16.009 44.578 24.132 74.001 24.132 66.765-5.325 101.956-38.605 106.018-100.045 1.263-27.955-14.063-56.764-46.080-85.982-34.782-25.395-50.142-56.115-46.114-92.16h-43.93c-1.297 25.395 1.263 44.578 8.090 58.027 4.062 11.947 17.271 29.457 40.107 52.053 1.297 1.297 2.56 2.56 4.062 4.062 27.921 24.098 40.721 46.080 37.956 66.15-4.062 38.605-24.747 58.675-62.089 59.938-46.626-1.536-69.257-28.843-67.959-82.193zM676.898 477.662v-52.053h-50.142v52.053h50.142z" />
<glyph unicode="&#xe906;" glyph-name="dssg-importIn" d="M781.143 509.025l-229.56-229.565v641.505c0 0.012 0 0.027 0 0.041 0 20.122-16.312 36.434-36.434 36.434-0.014 0-0.029 0-0.043 0h0.002c-0.012 0-0.027 0-0.041 0-20.122 0-36.434-16.312-36.434-36.434 0-0.014 0-0.029 0-0.043v0.002-641.5l-229.571 229.565c-6.526 6.617-15.59 10.716-25.611 10.716-0.052 0-0.104 0-0.155 0h0.008c-9.349 0-18.693-3.533-25.759-10.716-6.603-6.609-10.686-15.737-10.686-25.818s4.083-19.208 10.686-25.818v0l291.804-291.809c6.609-6.603 15.737-10.686 25.818-10.686s19.208 4.083 25.818 10.686v0l291.804 291.804c6.603 6.609 10.686 15.737 10.686 25.818s-4.083 19.208-10.686 25.818v0c-6.611 6.603-15.74 10.687-25.823 10.687s-19.212-4.084-25.823-10.687v0zM952.919 373.75c-0.012 0-0.027 0-0.041 0-20.108 0-36.411-16.289-36.434-36.391v-291.883c0-20.065-16.415-36.475-36.475-36.475h-729.498c-20.065 0-36.475 16.415-36.475 36.475v291.804c0 20.178-16.302 36.475-36.475 36.475s-36.475-16.302-36.475-36.475v-291.799c0-60.298 49.126-109.425 109.425-109.425h729.503c60.298 0 109.425 49.126 109.425 109.425v291.799c0 0.009 0 0.020 0 0.031 0 20.114-16.297 36.422-36.407 36.439h-0.073z" />
<glyph unicode="&#xe907;" glyph-name="dssg-importOut" d="M339.934 611.294c-14.336 0-28.706 5.495-39.697 16.486-21.982 21.982-21.982 57.549 0 79.394l171.759 171.725c21.982 21.982 57.549 21.982 79.394 0l171.725-171.725c21.982-21.982 21.982-57.549 0-79.394-21.982-21.982-57.549-21.982-79.36 0l-132.096 132.062-132.062-132.062c-10.957-10.991-25.327-16.486-39.663-16.486zM513.058 303.138c-27.477 0-49.698 23.962-49.698 53.521v437.623c0 29.594 22.221 53.555 49.698 53.555 27.443 0 49.698-23.962 49.698-53.555v-437.487c-0.034-29.696-22.255-53.658-49.698-53.658zM928.666 0.614h-833.741c-29.082 0-52.668 23.074-52.668 51.678v337.852c0 28.604 23.586 51.678 52.668 51.678s52.668-23.074 52.668-51.678v-286.208h728.269v286.208c0 28.604 23.586 51.678 52.702 51.678 29.082 0 52.77-23.074 52.77-51.678v-337.852c0-28.501-23.552-51.678-52.668-51.678z" />
<glyph unicode="&#xe908;" glyph-name="dssg-log-audit" d="M928.225 530.309l-81.865 65.694c-4.034 3.237-9.194 4.739-14.333 4.178s-9.841-3.151-13.079-7.178l-231.485-288.508c-1.295-1.618-2.331-3.434-3.056-5.377l-38.794-103.83c-2.607-6.989-1.009-14.851 4.131-20.245 3.741-3.943 8.871-6.074 14.133-6.074 1.961 0 3.942 0.295 5.872 0.903l120.66 38.129c3.674 1.161 6.919 3.389 9.326 6.387l231.494 288.518c6.733 8.405 5.389 20.664-3.005 27.403zM673.029 243.402l-76.896-24.301 23.7 63.439 217.331 270.862 51.456-41.3-215.591-268.699zM865.693 380.294c-15.521 0-28.112-13.087-28.112-29.24v-292.551h-653.676v778.9h460.105l193.572-120.535v-73.108c0-16.151 12.593-29.238 28.112-29.238 15.53 0 28.111 13.087 28.111 29.238v89.678c0 10.28-5.188 19.807-13.672 25.089l-213.903 133.203c-4.366 2.713-9.354 4.15-14.442 4.15h-495.995c-15.521 0-28.113-13.087-28.113-29.238v-837.378c0-16.154 12.593-29.24 28.113-29.24h709.901c15.53 0 28.111 13.087 28.111 29.24v321.789c0.001 16.154-12.581 29.24-28.112 29.24zM281.228 684.581c0 5.389-4.36 9.746-9.746 9.746h-36.502c-5.378 0-9.746-4.36-9.746-9.746v-36.491c0-5.389 4.369-9.746 9.746-9.746h36.502c5.387 0 9.746 4.359 9.746 9.746v36.491zM261.735 657.837h-17.009v16.998h17.009v-16.998zM271.482 507.492h-36.502c-5.378 0-9.746-4.36-9.746-9.745v-36.492c0-5.389 4.369-9.746 9.746-9.746h36.502c5.387 0 9.746 4.36 9.746 9.746v36.492c0 5.385-4.359 9.745-9.746 9.745zM261.735 471h-17.009v16.998h17.009v-16.998zM699.589 666.336c0 5.389-4.36 9.746-9.746 9.746h-353.544c-5.388 0-9.746-4.36-9.746-9.746s4.36-9.746 9.746-9.746h353.544c5.388 0 9.746 4.36 9.746 9.746zM336.3 489.245c-5.388 0-9.746-4.359-9.746-9.745s4.36-9.745 9.746-9.745h286.052c5.387 0 9.746 4.359 9.746 9.745s-4.361 9.745-9.746 9.745h-286.052z" />
<glyph unicode="&#xe909;" glyph-name="dssg-menu-manage" d="M932.978 140.8c0-50.29-40.755-91.022-91.022-91.022h-659.911c-50.267 0-91.022 40.732-91.022 91.022l-22.756 250.288c0 50.29 40.755 91.045 91.022 91.045h705.422c50.267 0 91.022-40.755 91.022-91.045l-22.756-250.288zM603.022 300.112h-182.044c-18.842 0-34.133-15.292-34.133-34.133 0-18.864 15.292-34.133 34.133-34.133h182.044c18.842 0 34.133 15.269 34.133 34.133 0 18.842-15.292 34.133-34.133 34.133zM329.956 664.201c-18.842 0-34.133 15.292-34.133 34.133s15.292 34.133 34.133 34.133h364.089c18.842 0 34.133-15.292 34.133-34.133s-15.292-34.133-34.133-34.133h-364.089zM750.933 584.556c0-18.864-15.292-34.133-34.133-34.133h-409.6c-18.842 0-34.133 15.269-34.133 34.133 0 18.842 15.292 34.133 34.133 34.133h409.6c18.842 0 34.133-15.292 34.133-34.133zM773.689 732.444c0 25.122-20.389 45.488-45.511 45.488h-432.356c-25.122 0-45.511-20.366-45.511-45.488l-32.336-204.777h-68.426l32.495 227.51c0 50.29 40.755 91.045 91.022 91.045h477.867c50.267 0 91.022-40.755 91.022-91.045l32.518-227.51h-68.449l-32.336 204.777z" />
<glyph unicode="&#xe90a;" glyph-name="dssg-message" d="M145.067 535.467c0-43.594 35.34-78.933 78.933-78.933s78.933 35.34 78.933 78.933v0c0 43.594-35.34 78.933-78.933 78.933s-78.933-35.34-78.933-78.933v0zM699.733 535.467c0-43.594 35.34-78.933 78.933-78.933s78.933 35.34 78.933 78.933v0c0 43.594-35.34 78.933-78.933 78.933s-78.933-35.34-78.933-78.933v0zM422.4 535.467c0-43.594 35.34-78.933 78.933-78.933s78.933 35.34 78.933 78.933v0c0 43.594-35.34 78.933-78.933 78.933s-78.933-35.34-78.933-78.933v0zM960 836.267v-631.467h-315.733l-132.267-145.067-132.267 145.067h-315.733v631.467h896zM960 900.267h-896c-36.267 0-64-27.733-64-64v-631.467c0-36.267 27.733-64 64-64h288l113.067-123.733c12.8-12.8 29.867-21.333 46.933-21.333s34.133 8.533 46.933 21.333l113.067 123.733h288c36.267 0 64 27.733 64 64v631.467c0 34.133-27.733 64-64 64z" />
<glyph unicode="&#xe90b;" glyph-name="dssg-net-manage" d="M512.026 960c-282.936 0-510.213-227.277-510.213-510.213s227.277-510.213 510.213-510.213 510.213 227.277 510.213 510.213-227.277 510.213-510.213 510.213zM767.135 837.084v-16.236c0-48.701-4.639-95.084-13.916-141.471-32.466-6.958-55.66-34.785-55.66-67.256 0-18.555 6.958-37.105 20.874-48.701-16.236-37.105-32.466-74.214-55.66-109-85.811 97.403-146.104 220.319-166.979 357.151 53.34 32.466 111.319 57.979 171.617 74.214 34.785-11.597 69.571-27.827 99.722-48.701zM669.727 380.211c41.743-39.424 85.811-74.214 134.513-102.042-48.701-9.277-99.722-13.916-153.062-13.916-23.194 0-46.382 2.319-69.576 2.319 0 4.639 0 9.277-2.319 13.916 32.466 30.147 62.618 64.937 90.445 99.722zM512.026 913.618c25.513 0 51.021-2.319 76.534-6.958-32.466-13.916-64.937-27.832-97.403-44.063-2.319 16.236-2.319 32.466-2.319 48.701 6.953 2.319 16.23 2.319 23.188 2.319zM637.261 414.996c-25.513-34.785-53.34-64.937-83.492-95.084-11.597 9.277-25.513 13.916-41.743 13.916-30.147 0-55.66-18.555-64.937-46.382-92.764 23.194-180.895 57.979-259.748 106.68 20.874 78.853 55.66 153.062 99.722 217.999 4.639 0 9.277-2.319 16.236-2.319 39.424 0 69.576 30.147 69.576 69.576 0 9.277-2.319 18.555-4.639 27.832 27.832 27.832 55.66 51.021 85.811 74.214 25.508-139.156 90.445-264.387 183.214-366.433zM117.77 206.275c-41.743 69.576-67.256 148.424-69.576 234.235 27.832-23.194 55.66-46.382 85.811-64.937-9.277-51.021-16.236-104.361-16.236-157.701v-11.597zM147.917 421.955c-34.785 23.194-64.937 48.701-95.084 76.534 23.194 208.722 185.533 375.706 391.936 408.172 0-25.513 2.319-48.701 4.639-74.214-41.434-29.383-77.744-59.068-111.924-91.004l0.605 0.559c-11.597 6.958-23.194 9.277-34.785 9.277-39.424 0-69.576-30.147-69.576-69.576 0-16.236 6.958-30.147 16.236-44.063-46.387-64.937-81.172-136.832-102.047-215.685zM168.791 139.018c-2.319 25.513-4.639 51.021-4.639 78.853 0 44.063 4.639 88.125 13.916 129.874 83.492-48.701 173.937-85.811 269.020-106.68 0-2.319 0-2.319 2.319-4.639-81.172-53.34-173.937-88.125-273.659-104.361-4.639 2.314-4.639 4.634-6.958 6.953zM512.026-14.044c-113.638 0-215.68 41.743-296.852 109 97.403 18.555 185.533 55.66 264.381 109 9.277-6.958 20.874-9.277 32.466-9.277 23.194 0 41.743 11.597 55.66 27.832 27.832-2.319 55.66-4.639 83.492-4.639 74.214 0 146.104 9.277 215.68 25.513 16.236-6.958 32.466-16.236 48.701-20.874-78.848-141.471-229.591-236.554-403.528-236.554zM871.496 292.081c-64.937 32.466-125.235 76.534-176.256 127.555 25.513 39.424 46.382 81.172 64.937 122.916h6.958c39.424 0 69.576 30.147 69.576 69.576 0 27.832-16.236 51.021-39.424 62.618 9.277 41.743 13.916 83.492 13.916 127.555 99.722-85.811 162.34-211.041 162.34-352.512 0-46.382-6.958-88.125-18.555-129.874-25.513-11.597-53.345-20.874-83.492-27.832z" />
<glyph unicode="&#xe90c;" glyph-name="dssg-personal-inf" d="M512-63.959c282.296 0 511.979 229.684 511.979 511.981 0 282.294-229.682 511.979-511.979 511.979s-511.979-229.684-511.979-511.979c0-282.296 229.682-511.981 511.979-511.981v0zM512 896.002c247.033 0 447.983-200.948 447.983-447.981 0-247.028-200.95-447.983-447.983-447.983s-447.981 200.955-447.981 447.983c0 247.033 200.948 447.981 447.981 447.981v0zM512 760.012c102.043 0 184.793-82.050 184.793-183.295 0-101.214-82.713-183.257-184.793-183.257-102.074 0-184.76 82.050-184.76 183.257 0 101.245 82.719 183.295 184.76 183.295v0zM512 445.847c72.897 0 131.995 58.617 131.995 130.908 0 72.316-59.098 130.903-131.995 130.903s-131.995-58.619-131.995-130.903c0-72.322 59.098-130.908 131.995-130.908v0zM512 445.847c145.819 0 263.993-117.213 263.993-261.818h-52.804c0 115.645-94.552 209.432-211.189 209.432s-211.194-93.787-211.194-209.432h-52.797c0 144.605 118.172 261.818 263.992 261.818v0z" />
<glyph unicode="&#xe90d;" glyph-name="dssg-process-query" d="M781.517 280.064c-5.53 1.126-10.342 4.437-13.449 9.148l-62.123 94.618c-6.417 9.762-3.686 22.903 6.076 29.355 9.762 6.417 22.938 3.686 29.355-6.076l62.123-94.652c6.451-9.762 3.721-22.938-6.076-29.321-4.642-3.14-10.377-4.198-15.906-3.072zM597.606 243.337c-188.894 39.117-310.34 223.949-271.189 412.877 39.117 188.826 223.983 310.272 412.774 271.155 188.996-39.117 310.272-223.983 271.223-412.843-39.151-188.894-223.983-310.238-412.809-271.189zM937.131 529.715c30.72 148.412-64.717 293.649-213.129 324.403-148.378 30.72-293.581-64.683-324.301-213.094-30.754-148.412 64.649-293.615 213.094-324.369 148.343-30.754 293.649 64.649 324.335 213.060zM259.311 753.186h-225.69c-18.5 0-33.621 15.121-33.621 33.587s15.121 33.553 33.621 33.553h225.69c18.466 0 33.587-15.087 33.587-33.553s-15.121-33.587-33.587-33.587zM259.311 347.443h-225.69c-18.5 0-33.621 15.155-33.621 33.587 0 18.534 15.121 33.587 33.621 33.587h225.69c18.466 0 33.587-15.053 33.587-33.587 0.034-18.432-15.121-33.587-33.587-33.587zM912.691-58.231h-879.104c-18.432 0-33.587 15.053-33.587 33.587 0 18.432 15.155 33.587 33.587 33.587h879.104c18.466 0 33.553-15.155 33.553-33.587 0.034-18.534-15.087-33.587-33.553-33.587z" />
<glyph unicode="&#xe90e;" glyph-name="dssg-resource-manage" d="M1024.512 258.56c-2.56-5.12-5.632-10.24-7.68-15.872-19.968-53.248-64-86.016-120.832-86.528-256-0.512-511.488-0.512-767.488 0-56.832 0-100.864 33.28-120.832 86.528-2.048 5.632-5.12 10.24-7.68 15.872v496.64c21.504 66.048 64.512 104.96 136.704 104.96 250.368 0 500.736 0.512 751.104 0 68.608 0 107.52-29.696 132.096-95.744 1.024-3.072 3.072-6.144 4.608-9.216v-496.64zM513.024 796.16h-371.2c-56.832 0-77.312-20.48-77.824-76.8-0.512-140.8-0.512-281.6 0-421.888 0-56.832 20.48-76.8 77.312-76.8h741.888c55.808 0 76.288 20.48 76.288 75.776 0.512 141.312 0.512 283.136 0 424.448 0 54.784-21.504 75.776-76.288 75.776-122.88-0.512-246.272-0.512-370.176-0.512zM193.536-33.792v60.928h190.464v62.976h255.488v-60.928h191.488v-62.976h-637.44zM574.464 284.672h-123.904v381.952h123.904v-381.952zM830.976 538.624v-252.416h-124.416v252.416h124.416zM318.464 284.672h-123.392v189.44h123.392v-189.44z" />
<glyph unicode="&#xe90f;" glyph-name="dssg-root-area" d="M281.6 492.8h468.8v-70.4h-468.8v70.4zM281.6 356.8h468.8v-70.4h-468.8v70.4zM281.6 220.8h468.8v-70.4h-468.8v70.4zM899.2 804.8h-264c0 65.6-52.8 118.4-116.8 118.4-65.6 0-116.8-52.8-116.8-118.4h-265.6c-16 0-28.8-12.8-28.8-28.8v-766.4c0-16 12.8-28.8 28.8-28.8h763.2c16 0 28.8 12.8 28.8 28.8v766.4c0 16-12.8 28.8-28.8 28.8zM516.8 864c32 0 59.2-27.2 59.2-59.2s-25.6-59.2-59.2-59.2c-32 0-59.2 27.2-59.2 59.2 1.6 32 27.2 59.2 59.2 59.2zM852.8 54.4h-672v675.2h100.8v-88c0-16 12.8-28.8 28.8-28.8h411.2c16 0 28.8 12.8 28.8 28.8v88h100.8v-675.2h1.6z" />
<glyph unicode="&#xe910;" glyph-name="dssg-search" d="M972.595 81.271l-214.050 214.118c51.371 66.116 81.954 149.163 81.954 239.377 0 215.586-174.763 390.417-390.417 390.417-215.586 0-390.349-174.831-390.349-390.417 0-215.62 174.763-390.383 390.349-390.383 90.283 0 173.329 30.583 239.445 81.988l214.084-214.118c9.489-9.523 22.050-14.302 34.509-14.302 12.493 0 25.020 4.779 34.577 14.302 19.081 19.115 19.081 49.937 0 68.983h-0.102zM157.321 534.767c0 161.451 131.311 292.796 292.762 292.796 161.519 0 292.864-131.345 292.864-292.796s-131.345-292.762-292.864-292.762c-161.451 0-292.762 131.311-292.762 292.762z" />
<glyph unicode="&#xe911;" glyph-name="dssg-serve-approve-msg" d="M905.233 802.305c-13.45 1.53-118.123 13.088-208.664 13.088-78.457 0-131.055-16.401-150.459-26.401-5.771-2.636-20.714-10.052-34.119-21.641-13.405 11.589-28.347 19.004-34.118 21.641-19.404 10.001-72.002 26.401-150.459 26.401-90.541 0-195.214-11.557-208.664-13.088-37.824-0.842-68.336-31.872-68.336-69.894v-566.021c0-38.169 30.745-69.291 68.77-69.903 0.305-0.011 0.614-0.017 0.926-0.017 1.162 0 2.355 0.074 3.575 0.23 10.098 1.289 63.476 7.925 122.826 12.051 104.471 7.263 144.309 1.075 158.757-3.257 0.060-0.018 0.119-0.033 0.18-0.049 0.263-0.077 0.527-0.148 0.792-0.217 0.176-0.046 0.353-0.089 0.529-0.13 0.202-0.047 0.406-0.092 0.611-0.134 0.242-0.051 0.485-0.097 0.729-0.14 0.074-0.013 0.146-0.030 0.221-0.044 6.83-1.137 17.034-4.502 27.838-8.064 21.857-7.204 49.057-16.171 75.827-16.171 22.544 0 47.442 7.135 71.52 14.035 16.919 4.848 34.414 9.862 43.984 9.862 3.119 0 6.102 0.579 8.854 1.627 120.54 16.944 261.299-8.901 262.721-9.167l2.273-0.426h2.313c38.549 0 69.911 31.363 69.911 69.912v566.020c-0.002 38.023-30.514 69.054-68.337 69.895v0zM418.14 153.585c-70.196 20.007-257.466-2.023-299.067-7.282-10.517 0.648-18.873 9.409-18.873 20.087v566.020c0 11.098 9.029 20.126 20.126 20.126h1.441l1.43 0.165c1.112 0.13 112.264 12.903 204.217 12.903 68.441 0 113.512-13.708 127.93-21.015l0.462-0.263 0.941-0.421c13.568-6.155 28.398-17.339 30.351-22.835v-583.768c0-1.291 0.099-2.558 0.287-3.795-11.986 2.708-24.252 6.742-35.633 10.493-12.034 3.968-23.418 7.703-33.614 9.585v0zM923.782 166.39c0-10.491-8.069-19.133-18.325-20.046-21.863 3.881-159.68 26.694-281.69 8.205-0.954-0.145-1.884-0.347-2.794-0.592-15.173-1.2-32.728-6.229-51.177-11.516-10.791-3.092-22.362-6.403-33.18-8.782 0.174 1.19 0.268 2.406 0.268 3.643v583.768c1.953 5.497 16.783 16.68 30.298 22.811l0.597 0.235 0.842 0.465c14.401 7.306 59.484 21.024 127.949 21.024 91.954 0 203.107-12.774 204.217-12.903l1.433-0.165h1.438c11.098 0 20.126-9.029 20.126-20.126l-0.001-566.020zM159.516 535.338c26.825 6.697 76.743 19.159 161.158 19.173 44.651-0.527 72.655-6.976 103.281-23.774 3.799-2.085 7.902-3.074 11.949-3.074 8.795 0 17.32 4.672 21.847 12.926 6.612 12.054 2.2 27.186-9.852 33.799-38.124 20.912-73.676 29.297-126.802 29.908l-0.286 0.001c-90.618 0-144.441-13.438-173.356-20.657-13.338-3.329-21.452-16.842-18.122-30.182 3.331-13.338 16.842-21.453 30.183-18.121v0zM449.089 370.907c-2.757 1.236-68.22 30.263-128.277 30.263-88.579 0-122.183-9.148-154.679-17.995-5.021-1.366-9.762-2.658-14.765-3.931-13.322-3.395-21.372-16.947-17.977-30.268 3.394-13.323 16.944-21.374 30.268-17.978 5.397 1.376 10.559 2.78 15.552 4.139 30.69 8.356 59.678 16.247 141.602 16.247 49.269 0 107.354-25.659 107.917-25.91 3.307-1.48 6.763-2.182 10.165-2.182 9.509 0 18.591 5.479 22.73 14.72 5.623 12.545 0.011 27.275-12.535 32.895v0zM873.918 589.469c-67.378 13.401-116.357 21.891-179.551 17.779-69.079-0.208-116.67-25.866-118.669-26.963-12.055-6.609-16.469-21.74-9.858-33.795 4.527-8.258 13.051-12.929 21.849-12.929 4.044 0 8.149 0.988 11.945 3.070 0.381 0.208 39.558 20.832 95.57 20.832h0.828l0.827 0.055c57.474 3.836 103.577-4.194 167.345-16.879 13.484-2.684 26.589 6.074 29.271 19.559s-6.073 26.589-19.557 29.272v0z" />
<glyph unicode="&#xe912;" glyph-name="dssg-slope-arrow" d="M685.978 274.159c6.178 7.305 11.605 17.783 12.254 25.532l30.481 273.374c1.673 25.361-15.565 44.954-37.99 47.445-22.289 2.458-44.954-15.565-47.479-37.956l-20.617-184.491-254.054 254.225c-16.794 16.794-43.93 16.794-60.723 0s-16.794-43.93 0-60.723l254.054-254.089-184.422-20.514c-22.289-2.492-39.663-25.020-37.956-47.445 1.809-24.371 25.122-40.448 47.445-37.956l273.34 30.413c11.469 0.887 17.408 4.198 25.668 12.186z" />
<glyph unicode="&#xe913;" glyph-name="dssg-system-manage" d="M539.985 799.125c14.801 0 26.993-12.199 26.993-27.029v-32.419c0-14.869 11.651-30.642 25.793-35.026l45.155-18.604c4.861-2.606 10.578-3.852 16.385-3.852 9.848 0 19.943 3.584 26.519 10.19l22.992 22.978c5.269 5.25 12.195 7.875 19.118 7.875 6.921 0 13.842-2.625 19.097-7.875l38.214-38.188c10.539-10.505 10.539-27.705 0-38.244l-22.99-22.961c-10.453-10.515-13.341-29.815-6.316-42.904l18.593-45.232c4.428-14.19 20.165-25.802 35.018-25.802h32.417c14.826 0 26.964-12.138 26.964-27.019v-54.060c0-14.869-12.137-27.016-26.964-27.016h-32.417c-14.791 0-30.59-11.607-35.018-25.772l-18.593-45.232c-7.025-13.113-4.137-32.473 6.316-42.935l22.99-22.956c10.539-10.529 10.539-27.714 0-38.25l-38.214-38.212c-5.255-5.251-12.176-7.875-19.097-7.875-6.924 0-13.848 2.623-19.118 7.875l-22.881 23.003c-6.599 6.572-16.669 10.148-26.491 10.148-5.826 0-11.565-1.259-16.439-3.898l-45.236-18.597c-14.144-4.415-25.793-20.161-25.793-35.034v-32.327c0-14.829-12.194-27.002-26.993-27.002h-53.98c-14.908 0-27.050 12.173-27.050 27.002v32.324c0 14.874-11.57 30.619-25.759 35.034l-45.3 18.599c-4.863 2.64-10.583 3.899-16.393 3.899-9.794 0-19.833-3.577-26.397-10.153l-23.019-23.002c-5.256-5.25-12.172-7.871-19.087-7.871s-13.829 2.623-19.070 7.871l-38.246 38.215c-10.454 10.534-10.454 27.719 0 38.248l22.993 22.956c10.51 10.465 13.337 29.823 6.343 42.937l-18.652 45.23c-4.374 14.163-20.082 25.774-34.958 25.796h-32.389c-14.856 0-27.023 12.178-27.023 27.054v54c0 14.88 12.168 27.020 27.023 27.020l32.389-0.031c14.878 0 30.618 11.619 35.011 25.805l18.6 45.258c7.052 13.094 4.194 32.391-6.343 42.907l-22.932 22.986c-10.514 10.514-10.514 27.712 0 38.219l38.183 38.188c5.243 5.249 12.156 7.875 19.072 7.875s13.833-2.626 19.087-7.875l23.049-22.978c6.593-6.618 16.65-10.195 26.468-10.195 5.797 0 11.51 1.245 16.379 3.858l45.214 18.602c14.19 4.384 25.758 20.158 25.758 35.027v32.42c0 14.829 12.173 27.029 27.050 27.029l53.978-0.001zM513.049 293.647c85.247 0 154.348 69.087 154.348 154.395 0 85.267-69.104 154.401-154.348 154.401-85.266 0-154.368-69.134-154.368-154.401 0-85.308 69.103-154.395 154.368-154.395zM539.357 859.546h-52.722c-52.396 0-95.026-42.619-95.026-95.004v-9.566l-9.83-4.045-6.809 6.789c-17.857 17.846-41.7 27.71-67.079 27.71-25.402 0-49.26-9.882-67.175-27.824l-37.257-37.264c-17.913-17.899-27.793-41.762-27.793-67.168 0-25.396 9.872-49.255 27.798-67.179l6.687-6.705-4.076-9.921-9.44 0.008c-52.445 0-95.061-42.615-95.061-94.995v-52.74c0-52.396 42.615-95.026 94.997-95.026h9.47l4.084-9.907-6.683-6.674c-36.894-37.151-36.898-97.27-0.218-134.228l37.549-37.528c17.87-17.887 41.723-27.765 67.122-27.765 25.369 0 49.212 9.859 67.129 27.759l6.688 6.683 9.899-4.065v-9.465c0-52.371 42.628-94.976 95.024-94.976h52.724c52.365 0 94.966 42.606 94.966 94.976v9.461l9.911 4.073 6.5-6.536c18.151-18.079 41.977-27.913 67.312-27.913 25.369 0 49.21 9.853 67.129 27.75l37.359 37.361c17.931 17.922 27.813 41.79 27.813 67.19 0 25.408-9.886 49.275-27.838 67.208l-6.691 6.681 4.065 9.885h9.542c52.351 0 94.939 42.617 94.939 94.992v52.805c0 52.381-42.588 94.995-94.939 94.995h-9.531l-4.068 9.894 6.673 6.666c17.994 17.997 27.869 41.887 27.849 67.311-0.021 25.41-9.924 49.264-27.887 67.171l-37.267 37.24c-17.928 17.911-41.773 27.772-67.146 27.772-25.343 0-49.173-9.839-67.099-27.702l-6.796-6.794-9.828 4.049v9.56c-0.003 52.379-42.605 94.998-94.971 94.998zM513.051 356.221c-50.611 0-91.786 41.191-91.786 91.82 0 50.633 41.175 91.831 91.786 91.831 50.598 0 91.764-41.198 91.764-91.831 0-50.629-41.166-91.82-91.764-91.82z" />
<glyph unicode="&#xe914;" glyph-name="serve-msg" d="M913.92 79.872c-60.928 0-110.080 49.152-110.080 110.080v432.64c0 15.36 12.288 27.648 27.648 27.648h123.904c37.888 0 68.608-30.72 68.608-68.608v-391.68c0-60.928-49.152-110.080-110.080-110.080zM859.136 594.944v-405.504c0-30.208 24.576-54.784 54.784-54.784s54.784 24.576 54.784 54.784v392.192c0 7.68-6.144 13.824-13.824 13.824h-95.744zM919.552 80.896h-809.472c-60.928 0-110.080 49.152-110.080 110.080v556.544c0 37.888 30.72 68.608 68.608 68.608h721.92c37.888 0 68.608-30.72 68.608-68.608v-546.304c0-57.344 30.208-65.024 59.904-65.024 15.36 0 27.648-12.288 27.648-27.648s-12.288-27.648-27.136-27.648zM68.608 761.344c-7.68 0-13.824-6.144-13.824-13.824v-556.544c0-30.208 24.576-54.784 54.784-54.784h708.096c-9.216 17.92-14.336 39.936-14.336 65.024v546.304c0 7.68-6.144 13.824-13.824 13.824h-720.896zM716.288 646.656h-572.416c-15.36 0-27.648 12.288-27.648 27.648s12.288 27.648 27.648 27.648h572.416c15.36 0 27.648-12.288 27.648-27.648 0-14.848-12.288-27.648-27.648-27.648zM391.68 406.528h-247.808c-15.36 0-27.648 12.288-27.648 27.648v123.392c0 15.36 12.288 27.648 27.648 27.648h247.296c15.36 0 27.648-12.288 27.648-27.648v-123.904c0.512-14.848-11.776-27.136-27.136-27.136zM171.52 461.312h192v68.608h-192v-68.608zM716.288 530.944h-224.768c-14.848 0-27.136 12.288-27.136 27.136s12.288 27.136 27.136 27.136h224.768c14.848 0 27.136-12.288 27.136-27.136 0-15.36-11.776-27.136-27.136-27.136zM716.288 406.528h-224.768c-14.848 0-27.136 12.288-27.136 27.136s12.288 27.136 27.136 27.136h224.768c14.848 0 27.136-12.288 27.136-27.136 0-15.36-11.776-27.136-27.136-27.136z" />
<glyph unicode="&#xe915;" glyph-name="tj_api" d="M816.773 529.050l-71.383 8.714c9.933 77.251-29.942 123.894-65.137 149.422-69.796 50.627-176.609 61.030-259.727 25.272-49.859-21.432-111.493-68.342-121.938-170.066l-71.598 6.984c10.844 105.585 69.263 186.276 164.485 227.215 105.738 45.425 242.156 31.795 331.745-33.178 71.444-51.804 104.694-127.939 93.553-214.364v0zM268.626 94.198c-5.97 0-11.592 0.225-16.824 0.625-103.352 7.823-202.772 88.75-231.25 188.211-24.33 84.972 6.789 165.14 85.381 219.955 61.225 38.308 130.908 39.076 133.857 39.076l0.338-70.083c-0.399 0-52.111-0.901-93.819-26.972-66.857-46.684-67.748-103.711-56.453-143.165 20.439-71.332 94.024-131.584 167.526-137.124 71.987-5.417 132.332 39.219 174.377 129.188l1.157 2.222c154.849 276.879 309.944 291.185 388.68 274.985 115.589-23.716 186.184-132.424 193.915-222.679 7.26-84.439-35.113-152.73-113.285-182.702-33.26-12.718-72.786-18.463-117.187-17.172l2.171 70.062c34.693-1.065 64.573 3.123 88.658 12.339 65.3 24.996 70.584 80.66 67.942 111.596-5.663 65.976-58.47 143.852-137.042 159.99-100.434 20.541-213.391-66.447-310.067-238.828-67.564-143.647-165.98-169.523-228.076-169.523v0zM943.227 180.265c0-56.658-47.176-102.615-105.359-102.615-58.204 0-105.37 45.957-105.37 102.615 0 56.689 47.165 102.636 105.37 102.636 58.184 0.010 105.359-45.937 105.359-102.636v0zM344.443 515.308c0-56.678-47.186-102.625-105.359-102.625-58.194 0-105.37 45.957-105.37 102.625 0 56.678 47.176 102.625 105.37 102.625 58.163 0.010 105.359-45.947 105.359-102.625v0z" />
<glyph unicode="&#xe916;" glyph-name="tj_cqjl" d="M1000.489 409.876c-2.161-24.648-6.185-49.254-12.114-73.656-15.534-64.123-43.059-123.29-81.869-175.852-37.468-50.749-83.763-93.235-137.636-126.28-53.873-33.034-112.599-54.927-174.572-65.126-64.174-10.547-128.993-8.018-192.645 7.537s-122.388 43.233-174.551 82.207c-50.371 37.663-92.508 84.244-125.245 138.435-32.737 54.2-54.446 113.316-64.502 175.688-10.404 64.594-7.803 129.853 7.721 193.966 20.265 83.661 62.106 160.594 120.996 222.433 57.098 59.996 128.952 104.714 207.78 129.321 17.633 5.509 36.342-4.424 41.789-22.17 5.437-17.746-4.444-36.598-22.067-42.107-140.186-43.745-248.832-159.99-283.566-303.36-54.733-225.864 83.22-454.226 307.487-509.041 224.276-54.825 451.246 84.326 505.969 310.2 54.712 225.874-83.22 454.226-307.497 509.051-17.93 4.383-28.908 22.569-24.535 40.622 4.383 18.063 22.456 29.153 40.376 24.76 63.652-15.565 122.378-43.233 174.561-82.227 50.35-37.652 92.498-84.234 125.235-138.424 32.748-54.2 54.436-113.306 64.492-175.688 6.451-39.977 7.905-80.22 4.393-120.289v0zM524.564 945.94c25.549-10.578 37.683-39.885 27.116-65.403-10.578-25.539-39.875-37.704-65.413-27.126-25.559 10.578-37.693 39.895-27.126 65.434 10.557 25.518 39.864 37.673 65.423 27.095v0z" />
<glyph unicode="&#xe917;" glyph-name="tj_cqll" d="M974.397 642.079c-25.405 60.006-61.655 113.828-108.001 160.102-46.285 46.336-100.086 82.534-160.113 108.001-62.085 26.194-128.061 39.578-195.994 39.578-67.922 0-133.908-13.384-196.076-39.578-60.006-25.477-113.828-61.665-160.031-108.001-46.336-46.275-82.606-100.096-108.001-160.102-26.194-62.085-39.578-128.072-39.578-196.004s13.384-133.908 39.578-196.076c25.477-60.017 61.665-113.828 108.001-160.174 46.264-46.275 100.086-82.534 160.092-107.93 62.106-26.204 128.082-39.578 196.086-39.578 67.994 0 133.908 13.384 196.076 39.578 60.017 25.395 113.828 61.655 160.102 107.93 46.336 46.336 82.596 100.147 108.001 160.174 26.051 62.095 39.434 128.082 39.434 196.076 0 68.004-13.384 133.919-39.578 196.004v0zM919.347 273.244c-22.446-52.808-54.456-100.372-95.13-141.097-40.714-40.663-88.351-72.745-141.097-95.119-54.753-23.101-112.896-34.836-172.831-34.836-59.945 0-118.077 11.735-172.769 34.836-52.746 22.446-100.372 54.456-141.097 95.119-40.653 40.735-72.755 88.361-95.13 141.097-23.163 54.753-34.898 112.896-34.898 172.831s11.735 118.077 34.826 172.759c22.446 52.736 54.467 100.383 95.191 141.107 40.724 40.653 88.351 72.745 141.097 95.119 54.692 23.173 112.824 34.898 172.769 34.898 59.935 0 118.077-11.735 172.759-34.826 52.736-22.446 100.372-54.467 141.107-95.119 40.653-40.724 72.745-88.361 95.119-141.107 23.101-54.753 34.826-112.814 34.826-172.759 0.020-59.924-11.643-118.149-34.744-172.902v0zM819.63 471.624h-107.008l-39.281 124.836c-1.874 7.127-9.349 11.448-16.476 9.503l-22.958-0.287c-6.984 1.874-12.442-3.963-14.305-10.865l-57.129-274.35-77.353 381.932c-1.802 6.984-9.001 11.151-15.892 9.206 0 0-19.507-0.358-28.641-0.358-9.144 0-12.165-9.216-12.165-9.216l-57.702-301.763-20.582 63.959c-1.946 7.27-8.776 8.202-16.763 7.854l-132.393-0.369c-7.485 0-13.466-6.042-13.466-13.527v-26.911c0-7.475 5.97-13.445 13.466-13.445h106.486l39.434-123.054c1.946-7.188 9.503-11.438 16.763-9.492l20.941 0.287c7.055-1.874 15.258 3.953 17.121 10.865l59.075 278.036 78.008-384.87c1.864-6.994 8.991-11.090 15.974-9.216 0 0 14.244 0.215 22.6 0.215 8.407 0 9.708 15.606 9.708 15.606l62.802 295.086 20.019-63.816c1.935-7.209 9.349-11.387 16.466-9.503l133.13-0.215c7.475 0 13.445 5.97 13.445 13.445v27.044c0.061 7.404-5.908 13.384-13.322 13.384v0z" />
<glyph unicode="&#xe918;" glyph-name="tj_dysb" d="M229.069 96.297c0-13.087 13.885-21.248 24.945-14.643l208.21 124.447c15.872 9.595 33.331 14.305 50.739 14.305 17.388 0 34.826-4.721 50.729-14.305l208.148-124.396c11.039-6.615 24.934 1.556 24.934 14.664v735.089c0 8.653-3.779 16.558-9.738 22.292-6.257 6.103-15.084 9.83-24.945 9.83h-498.289c-9.851 0-18.668-3.738-25.057-9.83-5.898-5.734-9.677-13.64-9.677-22.292v-72.315c0-9.37-7.424-16.968-16.579-16.968h-47.933c-9.155 0-16.579 7.598-16.579 16.968v85.76c0 27.832 11.745 53.053 30.659 71.24 18.606 17.869 44.216 29.010 72.202 29.010h524.196c28.037 0 53.596-11.141 72.212-29.010 18.913-18.176 30.648-43.469 30.648-71.24l-0.051-862.7c0-5.786-1.516-11.715-4.68-17.009-9.37-15.677-29.747-20.787-45.384-11.387l-295.383 176.456c-6.011 3.625-12.698 5.427-19.395 5.427-6.687 0-13.445-1.812-19.466-5.427l-292.884-175.022c-6.154-4.219-12.636-6.359-19.517-6.359-18.309 0-33.147 14.889-33.147 33.188v310.743c0 9.37 7.424 16.978 16.579 16.978h47.933c9.155 0 16.579-7.608 16.579-16.978l-0.010-196.516zM301.466 344.934h50.391c8.468 0 15.34 7.035 15.34 15.718v329.605c0 8.673-6.871 15.708-15.34 15.708h-50.391c-8.479 0-15.34-7.035-15.34-15.708v-329.605c0-8.694 6.861-15.718 15.34-15.718v0zM503.009 499.651v51.589c0 8.673-6.871 15.708-15.34 15.708h-322.007c-8.468 0-15.34-7.035-15.34-15.708v-51.589c0-8.673 6.871-15.698 15.34-15.698h322.007c8.468 0 15.34 7.035 15.34 15.698v0z" />
<glyph unicode="&#xe919;" glyph-name="tj_dysbs" d="M438.159 295.997c0-42.516-34.468-77.005-76.995-77.005v0c-42.516 0-76.984 34.478-76.984 77.005v0c0 42.506 34.468 76.974 76.984 76.974v0c42.527 0.010 76.995-34.447 76.995-76.974v0 0zM746.117 263.26c-18.074 0-32.727 14.664-32.727 32.737 0 94.075-36.639 182.528-103.158 249.047-66.529 66.529-154.982 103.168-249.057 103.168-18.074 0-32.727 14.653-32.727 32.727 0 18.084 14.653 32.737 32.727 32.737 56.371 0 111.073-11.049 162.591-32.84 49.746-21.033 94.413-51.149 132.751-89.498 38.349-38.349 68.465-83.016 89.498-132.751 21.791-51.517 32.829-106.23 32.829-162.591 0-18.074-14.643-32.737-32.727-32.737v0zM592.138 263.26c-18.084 0-32.727 14.664-32.727 32.737 0 109.312-88.934 198.226-198.236 198.226-18.074 0-32.737 14.653-32.737 32.737 0 18.074 14.664 32.727 32.737 32.727 70.431 0 136.653-27.433 186.45-77.23 49.807-49.807 77.24-116.029 77.24-186.46 0-18.074-14.643-32.737-32.727-32.737v0zM515.154-44.687c-66.765 0-131.553 13.076-192.553 38.881-58.911 24.924-111.8 60.58-157.225 106.004-45.414 45.425-81.080 98.314-105.994 157.225-25.815 61.010-38.902 125.788-38.902 192.553 0 66.755 13.087 131.543 38.881 192.553 24.914 58.911 60.58 111.8 106.004 157.225 45.414 45.414 98.314 81.080 157.225 105.994 61.010 25.805 125.798 38.892 192.563 38.892 66.775 0 131.553-13.087 192.563-38.892 58.9-24.914 111.811-60.57 157.225-105.994 45.425-45.414 81.080-98.314 106.004-157.225 25.815-61.010 38.892-125.788 38.892-192.553 0-66.775-13.076-131.553-38.892-192.563-24.924-58.911-60.58-111.811-106.004-157.225-45.404-45.425-98.314-81.080-157.225-106.004-61.020-25.795-125.798-38.871-192.563-38.871v0zM515.154 879.176c-57.958 0-114.156-11.336-167.055-33.71-51.108-21.617-97.014-52.572-136.438-91.996-39.434-39.424-70.39-85.33-91.996-136.438-22.385-52.9-33.72-109.097-33.72-167.055s11.336-114.176 33.71-167.066c21.617-51.108 52.562-97.014 91.996-136.438 39.424-39.424 85.33-70.369 136.438-91.996 52.9-22.374 109.097-33.71 167.055-33.71s114.166 11.336 167.055 33.71c51.118 21.627 97.024 52.582 136.438 91.996 39.434 39.434 70.38 85.33 91.996 136.438 22.374 52.9 33.71 109.097 33.71 167.066 0 57.948-11.336 114.156-33.71 167.045-21.617 51.108-52.572 97.014-91.996 136.438-39.424 39.434-85.32 70.38-136.438 91.996-52.89 22.385-109.087 33.72-167.045 33.72v0z" />
<glyph unicode="&#xe91a;" glyph-name="tj_fbzys" d="M659.169 579.256c-14.172-14.172-37.12-14.172-51.302 0l-55.439 56.371v-296.684c0-20.040-16.23-36.239-36.239-36.239h-11.069c-20.040 0-36.25 16.2-36.25 36.239v301.486l-60.17-61.174c-14.162-14.172-37.12-14.172-51.261 0l-7.834 7.844c-14.152 14.141-14.152 37.089 0 51.261l131.523 133.724c7.465 7.465 17.367 10.977 27.156 10.568 9.779 0.42 19.681-3.103 27.156-10.568l131.574-133.724c14.111-14.172 14.111-37.12 0-51.261l-7.844-7.844zM807.639 244.050c0-16.169-10.127-29.276-22.61-29.276h-553.462c-12.493 0-22.61 13.107-22.61 29.276v7.025c0 16.159 10.117 29.276 22.61 29.276h553.462c12.483 0 22.61-13.117 22.61-29.276v-7.025zM826.307 784.579c170.998-172.605 170.609-451.308-1.618-623.493-172.595-172.616-452.495-172.616-625.111 0-172.206 172.206-172.206 452.086-0.399 624.701l-40.335 40.325c-194.386-195.205-194.386-510.577 0.41-705.382 194.785-194.796 510.976-194.796 705.782 0 194.386 194.386 194.785 509.379 1.608 704.164l-40.335-40.315zM158.843 785.787c11.141-11.131 29.194-11.131 40.335 0 11.141 11.121 11.141 29.184 0 40.325v0 0c-11.141 11.131-29.194 11.131-40.335 0-11.141-11.141-11.141-29.184 0-40.325v0 0zM827.126 783.77c11.131-11.131 29.194-11.131 40.315 0 11.141 11.141 11.151 29.184 0.010 40.335v0c-11.141 11.141-29.204 11.141-40.325 0-11.131-11.131-11.141-29.194 0-40.335v0 0z" />
<glyph unicode="&#xe91b;" glyph-name="tj_fbzyxq" d="M260.884 519.813c-19.845 0-35.82-16.097-35.82-35.82 0-19.845 16.097-35.809 35.82-35.809 19.845 0 35.809 16.097 35.809 35.809 0.010 19.722-15.964 35.82-35.809 35.82v0zM260.884 734.935c-19.845 0-35.82-16.097-35.82-35.82s16.097-35.809 35.82-35.809c19.845 0 35.809 16.097 35.809 35.809 0.010 19.722-15.964 35.82-35.809 35.82v0zM260.884 304.558c-19.845 0-35.82-16.077-35.82-35.809 0-19.845 16.097-35.809 35.82-35.809 19.845 0 35.809 16.087 35.809 35.809 0.010 19.732-15.964 35.809-35.809 35.809v0zM762.993 519.813h-358.615c-19.845 0-35.82-16.097-35.82-35.82 0-19.845 16.097-35.809 35.82-35.809h358.605c19.855 0 35.82 16.097 35.82 35.809 0.010 19.722-15.964 35.82-35.809 35.82v0zM762.993 734.935h-358.615c-19.845 0-35.82-16.097-35.82-35.82s16.097-35.809 35.82-35.809h358.605c19.855 0 35.82 16.097 35.82 35.809 0.010 19.722-15.964 35.82-35.809 35.82v0zM870.554 950.17h-717.23c-79.247 0-143.493-64.246-143.493-143.493v-717.343c0-79.247 64.246-143.503 143.493-143.503h717.343c79.247 0 143.503 64.246 143.503 143.503v717.343c-0.123 79.247-64.369 143.493-143.616 143.493v0zM942.295 120.904c0-79.247-37.755-103.322-117.002-103.322h-627.323c-79.247 0-116.398 24.074-116.398 103.322v657.459c0 79.247 45.373 100.065 124.621 100.065h611.369c79.247 0 124.744-21.299 124.744-100.547v-656.978h-0.010zM762.993 304.558h-358.615c-19.845 0-35.82-16.077-35.82-35.809 0-19.845 16.097-35.809 35.82-35.809h358.605c19.855 0 35.82 16.087 35.82 35.809 0.010 19.732-15.964 35.809-35.809 35.809v0z" />
<glyph unicode="&#xe91c;" glyph-name="tj_jzjl" d="M507.535 949.258c-199.352 0-371.651-115.845-453.263-283.873v189.747c0 10.26-8.325 18.575-18.586 18.575h-13.189c-10.26 0-18.586-8.315-18.586-18.575v-214.651c0-2.14 0.379-4.198 1.055-6.124-0.676-1.935-1.055-4.004-1.055-6.164v-12.595c0-10.424 8.458-18.883 18.883-18.883h214.036c10.435 0 18.893 8.448 18.893 18.883v12.595c0 10.424-8.458 18.883-18.893 18.883h-135.444c74.168 149.248 228.188 251.812 406.149 251.812 250.317 0 453.274-202.936 453.274-453.263s-202.947-453.274-453.274-453.274c-250.317 0.010-453.263 202.947-453.263 453.284h-50.36c0-278.139 225.485-503.634 503.634-503.634 278.129 0 503.624 225.485 503.624 503.634-0.010 278.149-225.485 503.624-503.634 503.624v0zM482.355 414.147c0-10.424 8.448-18.883 18.883-18.883h214.036c10.445 0 18.893 8.458 18.893 18.883v12.595c0 10.424-8.448 18.883-18.893 18.883h-182.559v233.226c0 10.271-8.325 18.586-18.586 18.586h-13.189c-10.271 0-18.586-8.315-18.586-18.586v-239.821c0-2.14 0.379-4.188 1.055-6.124-0.666-1.935-1.055-4.004-1.055-6.164v-12.595z" />
<glyph unicode="&#xe91d;" glyph-name="tj_jzll" d="M15.882 360.376l307.241-205.281-55.89-87.398c68.987-44.943 150.17-71.24 237.455-71.24 190.945 0 353.649 124.201 418.243 299.1 22.579 61.204 58.153 76.216 88.863 67.42-40.428-238.817-247.736-420.833-498.063-420.833-249.436 0-456.294 180.654-497.848 418.232v0zM1013.033 525.804l-309.381 224.471 49.111 82.196c-68.076 42.568-147.692 67.635-233.052 67.635-195.676 0-361.892-128.84-424.1-308.818-11.069-19.763-43.356-35.799-74.752-30.72 51.149 225.044 252.242 393.288 492.872 393.288 252.805 0 461.701-185.743 499.302-428.052v0z" />
<glyph unicode="&#xe91e;" glyph-name="tj_rrcs" d="M512 939.827c-271.626 0-491.817-220.201-491.817-491.827 0-271.647 220.191-491.827 491.817-491.827 271.636 0 491.827 220.18 491.827 491.827 0 271.626-220.191 491.827-491.827 491.827v0zM512 17.664c-237.67 0-430.336 192.655-430.336 430.336 0 237.67 192.666 430.346 430.336 430.346 237.681 0 430.346-192.676 430.346-430.346 0-237.681-192.666-430.336-430.346-430.336v0zM767.375 452.362h-344.044c-12.401 0-22.456-10.045-22.456-22.446 0-12.421 10.056-22.477 22.456-22.477h344.054c12.401 0 22.446 10.056 22.446 22.477 0 12.401-10.056 22.446-22.456 22.446v0zM423.332 616.888h344.054c12.401 0 22.446 10.045 22.446 22.456s-10.045 22.467-22.446 22.467h-344.054c-12.401 0-22.456-10.056-22.456-22.467-0.010-12.411 10.045-22.456 22.456-22.456v0zM767.375 242.944h-344.044c-12.401 0-22.456-10.056-22.456-22.456s10.056-22.456 22.456-22.456h344.054c12.401 0 22.446 10.056 22.446 22.456 0 12.39-10.056 22.456-22.456 22.456v0zM333.64 661.801h-59.945c-12.401 0-22.456-10.056-22.456-22.467 0-12.401 10.056-22.456 22.456-22.456h59.945c12.401 0 22.456 10.045 22.456 22.456s-10.056 22.467-22.456 22.467v0zM333.64 452.362h-59.945c-12.401 0-22.456-10.045-22.456-22.446 0-12.421 10.056-22.477 22.456-22.477h59.945c12.401 0 22.456 10.056 22.456 22.477 0 12.401-10.056 22.446-22.456 22.446v0zM333.64 242.944h-59.945c-12.401 0-22.456-10.056-22.456-22.456s10.056-22.456 22.456-22.456h59.945c12.401 0 22.456 10.056 22.456 22.456 0 12.39-10.056 22.456-22.456 22.456v0z" />
<glyph unicode="&#xe91f;" glyph-name="tj_sbzyl" d="M973.906 654.715c-23.992 56.545-58.245 107.336-101.898 150.845-43.684 43.643-94.484 77.834-150.979 101.745-58.573 24.76-120.73 37.335-184.934 37.335-24.33 0-44.093-19.763-44.093-44.083v-430.008c0-24.207 19.732-44.001 44.042-44.083l431.442-0.748c11.776 0 22.835 4.588 31.14 12.902 8.192 8.172 12.902 19.548 12.902 31.212-0.092 64.143-12.749 126.269-37.622 184.883v0zM920.801 514.007l-340.634 0.594v339.487c86.559-9.82 167.393-48.712 229.55-110.807 62.177-62.085 101.1-142.787 111.084-229.274v0zM919.757 381.563c-23.706 4.547-47.114-11.448-51.661-34.847-16.886-86.968-63.928-166.267-132.413-223.365-34.058-28.355-72.315-50.514-113.715-65.761-42.885-15.821-87.951-23.839-133.99-23.839-103.465 0-200.684 40.294-273.838 113.48-73.155 73.114-113.449 170.383-113.449 273.838 0 45.558 7.782 89.999 23.122 132.157 14.848 40.929 36.372 78.817 64 112.558 55.429 67.881 132.803 115.436 217.938 133.806 11.5 2.478 21.371 9.308 27.75 19.21 6.349 9.861 8.509 21.688 5.99 33.178-4.946 23.204-28.867 38.851-52.388 33.782-104.54-22.569-199.608-80.896-267.561-164.188-33.905-41.441-60.365-87.962-78.623-138.23-18.903-52.009-28.436-106.588-28.436-162.284 0-64.143 12.544-126.423 37.417-185.078 23.962-56.576 58.225-107.407 101.857-151.101 43.766-43.725 94.597-77.978 151.132-101.898 58.655-24.791 120.904-37.366 185.078-37.366 56.576 0 111.923 9.871 164.506 29.266 50.79 18.688 97.792 45.844 139.633 80.742 84.050 70.001 141.793 167.373 162.55 274.186 2.243 11.571-0.164 23.316-6.738 33.065-6.584 9.861-16.579 16.445-28.16 18.688v0z" />
<glyph unicode="&#xe920;" glyph-name="tj_sjk" d="M852.685 878.981c-86.19 36.946-209.336 55.419-344.781 55.419-135.455 0-258.58-18.473-344.781-55.419-98.509-43.090-147.763-92.344-147.763-147.753v-572.58c0-55.409 49.254-110.817 147.763-147.763 86.2-43.1 209.336-61.573 344.781-61.573s258.58 18.473 344.771 55.409c92.365 36.936 147.773 92.365 147.773 147.773v578.734c0 55.409-49.254 104.663-147.763 147.753v0zM797.266 626.555c-80.026-30.781-190.863-43.1-289.362-43.1-104.663 0-209.336 12.319-289.372 43.1-92.355 24.637-135.444 61.573-135.444 104.673 0 36.936 49.254 73.882 135.455 104.673 80.026 24.617 184.699 36.925 289.362 36.925 98.509 0 209.336-18.473 289.362-43.090 86.2-30.781 135.465-67.727 135.465-104.673 0-36.936-43.11-73.871-135.465-98.509v0zM803.441 448.010c-80.046-24.627-190.874-43.090-295.537-43.090s-209.336 18.463-295.526 43.090c-86.2 30.781-135.444 67.727-135.444 104.663v67.727c61.563-24.627 104.663-55.419 172.39-67.727 80.036-18.473 166.226-30.781 258.58-30.781s178.545 12.308 258.58 30.781c67.727 12.319 110.817 43.1 172.39 67.727v-73.882c0.010-30.781-49.254-67.727-135.434-98.509v0zM803.441 251.003c-80.046-24.627-190.874-43.11-295.537-43.11s-209.336 18.483-295.526 43.11c-86.2 24.627-135.444 61.563-135.444 104.663v92.355c61.563-30.781 104.663-55.409 172.39-73.882 80.036-18.473 166.226-30.781 258.58-30.781s178.545 12.308 258.58 30.781c67.727 18.473 110.817 43.1 172.39 73.882v-92.355c0.010-43.11-49.254-80.036-135.434-104.663v0zM507.904 10.875c-104.663 0-209.336 18.473-295.526 43.090-86.2 24.627-135.444 61.573-135.444 98.519v92.355c61.563-30.781 104.663-55.409 172.39-73.892 73.882-18.463 166.226-30.781 252.426-30.781 92.355 0 178.555 12.319 258.58 30.781 73.892 18.483 116.982 43.11 178.555 73.892v-92.355c0-36.946-49.265-73.892-135.444-104.673-80.046-24.617-197.028-36.936-295.537-36.936v0z" />
<glyph unicode="&#xe921;" glyph-name="tj_ssll" d="M844.36 951.194h-668.426c-92.303 0-167.117-74.824-167.117-167.117v-668.436c0-92.293 74.824-167.107 167.117-167.107h668.426c92.293 0 167.107 74.824 167.107 167.107v668.436c0 92.293-74.813 167.117-167.107 167.117v0zM948.89 123.924c0-62.935-51.016-113.951-113.951-113.951h-649.748c-62.925 0-113.94 51.016-113.94 113.951v650.732c0 62.925 51.016 113.94 113.94 113.94h649.748c62.935 0 113.951-51.016 113.951-113.94v-650.732zM856.105 386.058h-71.424c-17.111 0-25.938-6.236-34.918-28.058l-39.311-80.312-62.198 475.587c-2.324 19.64-15.391 31.386-39.762 31.386-27.781 0-35.871-18.954-38.359-32.256l-97.577-488.632-77.056 384.655c-3.84 19.384-19.395 28.283-42.086 28.17-0.399 0-30.464-1.894-35.031-24.996 0 0-82.063-265.544-82.77-265.544h-69.407c-19.773 0-33.802-11.008-33.802-30.802 0-19.763 14.029-31.785 33.802-31.785h77.435c5.888 0 37.693-5.837 48.783 26.491l57.743 198.062 83.272-418.324c0-16.906 11.96-31.949 29.174-35.195 19.436-3.625 38.154 9.175 41.789 28.621l103.649 472.607 43.11-408.914c2.324-19.64 18.811-30.157 39.762-31.365 1.516-0.092 26.051-5.243 39.506 20.49l77.599 148.531h48.067c19.773 0 30.792 11.028 30.792 30.802 0.010 19.773-11.018 30.781-30.781 30.781v0z" />
<glyph unicode="&#xe922;" glyph-name="tj_wj" d="M842.342 60.498h-663.767c-53.064 0-96.42 40.724-97.833 91.29l-66.427 421.55v2.324c0 51.753 43.919 93.86 97.915 93.86h12.718v53.596c0 51.753 43.919 93.86 97.884 93.86h199.117c35.768 0 89.631-29.512 119.183-63.201h256.963c41.421 0 137.073-30.321 141.937-89.17 38.646-12.554 66.57-47.677 66.57-88.934v-2.335l-66.417-421.54c-1.423-50.586-44.78-91.3-97.843-91.3v0 0zM77.435 577.608l66.324-420.915v-2.335c0-17.951 15.616-32.543 34.826-32.543h663.757c19.2 0 34.816 14.592 34.816 32.543v2.335l66.335 420.915c-1.085 17.050-16.282 30.597-34.806 30.597h-31.508v50.934c-1.556 3.267-10.23 11.93-29.327 20.5-19.63 8.806-39.537 12.82-49.746 12.82h-290.396l-9.236 14.582c-15.268 24.115-60.129 48.62-76.524 48.62h-199.117c-19.21 0-34.826-14.612-34.826-32.543v-114.903h-75.786c-18.514 0-33.7-13.558-34.785-30.607v0 0zM46.817 609.085h923.668v-59.331h-923.668v59.331z" />
<glyph unicode="&#xe923;" glyph-name="tj_zrzty" d="M708.106 417.546v0 0zM839.823-34.028h-690.637c-61.194 0-128.41 67.144-128.41 128.328v591.944c0 61.88 66.171 95.314 128.41 95.314h378.307c25.272 0 45.998-20.654 45.998-46.070 0-25.559-20.726-46.346-45.998-46.346h-378.307c-25.559 0-35.297-4.076-36.956-5.591l0.973-589.24c0.686-8.223 21.412-35.983 35.983-35.983h686.561c2.478 4.137 6.973 15.401 6.973 35.983v361.585c0 25.62 20.859 46.418 46.49 46.418 25.283 0 45.998-20.787 45.998-46.418v-361.595c0-80.333-48.558-128.328-95.386-128.328v0zM426.506 201.431c-20.654 0-38.472 13.404-44.411 33.434-0.553 1.874-56.709 196.444 59.75 335.544 76.247 91.044 205.271 134.554 384.174 129.649l-150.589 150.641c-18.094 18.309-18.094 46.971-0.133 65.28 17.541 17.746 48.067 17.746 65.536 0l265.103-264.684-267.028-235.264c-19.2-16.783-49.449-14.428-65.341 4.014-16.855 19.2-15.063 48.558 4.065 65.27l139.049 122.399c-144.988 3.174-247.562-29.286-303.923-96.563-79.78-95.529-45.793-234.977-41.718-250.511 7.188-24.177-6.973-49.869-31.498-57.201-4.27-1.321-8.684-2.007-13.036-2.007v0z" />
<glyph unicode="&#xe924;" glyph-name="dssg-auditing" d="M592.89 272.112v190.061c81.234 33.294 138.438 114.379 138.438 209.162 0 124.588-98.868 225.567-220.716 225.567-122.014 0-220.772-100.98-220.772-225.567 0-94.783 57.258-175.867 138.491-209.162v-190.061h-340.967v-135.804h846.495v135.804h-340.97zM88.3 2.579h845.56v46.069h-845.56v-46.069z" />
<glyph unicode="&#xe925;" glyph-name="dssg-key" d="M715.335 4.435c-19.216 0-36.865 8.127-49.695 21.103-12.772 13.002-20.841 30.857-20.841 50.363s8.069 37.358 20.841 50.364l48.127 48.737-30.48 30.853-48.068-48.736c-12.89-14.629-30.477-21.129-49.695-21.129-19.275 0-36.925 8.125-49.753 21.129s-20.843 30.856-20.843 50.334c0 19.505 8.014 37.388 20.843 50.362l48.126 48.737-145.948 147.806c-83.367-34.106-181.131-14.629-245.282 50.364-43.308 43.831-67.344 100.695-67.344 162.408s24.034 120.202 65.718 162.439c41.743 42.235 99.449 66.589 160.349 66.589s118.663-24.354 160.346-68.214c75.357-76.344 88.185-196.546 32.048-285.863l347.922-352.48c4.877-4.878 6.443-11.378 6.443-17.853 0-6.502-3.192-13.004-6.443-17.88l-129.81-131.552c-11.265-11.379-28.912-17.881-46.56-17.881zM683.287 264.319c6.387 0 12.832-1.627 17.65-6.503l64.093-64.964c4.877-4.877 6.448-11.378 6.448-17.85 0-6.503-3.197-13.006-6.448-17.883l-64.093-64.962c-4.818-4.879-6.384-9.753-6.384-16.256s1.567-11.378 6.384-16.257c8.012-8.098 22.409-8.098 30.421 0l112.279 113.701-346.356 350.855c-8.010 8.128-9.636 22.729-1.568 32.482 54.513 71.465 48.072 175.412-14.456 240.404-33.671 34.109-78.547 53.585-126.674 53.585-48.069 0-94.572-21.103-128.244-55.211s-52.888-79.592-52.888-128.33c0-48.708 19.215-94.193 52.888-128.3 54.514-55.24 136.255-68.216 205.222-34.108 9.64 4.847 20.845 3.222 27.289-4.877l174.744-177.068c9.637-9.723 9.637-24.355 0-34.106l-64.148-64.964c-4.822-4.877-6.448-9.751-6.448-16.255 0-6.477 1.626-11.352 6.448-16.23 8.008-8.126 22.465-8.126 30.475 0l64.093 64.967c6.444 4.877 12.889 8.129 19.274 8.129zM353.015 529.077c-36.864 0-70.536 14.601-96.196 40.61-52.947 53.582-52.947 141.304 0 194.918 52.887 53.585 139.448 53.585 192.393 0 52.888-53.613 52.888-141.335 0-194.918-25.659-26.009-59.331-40.61-96.197-40.61zM353.015 756.477c-22.468 0-44.876-8.127-62.525-26.009-33.672-35.704-33.672-90.942 1.567-126.675 16.082-16.255 38.491-26.009 62.526-26.009 24.034 0 44.934 9.754 62.583 26.009 33.67 34.107 33.67 90.97 0 125.050-19.274 17.881-41.683 27.634-64.151 27.634z" />
<glyph unicode="&#xe926;" glyph-name="dssg-public-menu" d="M63.819 190.609h121.375v-119.959h-121.375v119.959zM310.141 190.609h650.322v-119.959h-650.322v119.959zM310.141 829.382h650.322v-119.928h-650.322v119.928zM310.141 499.775h650.322v-119.928h-650.322v119.928zM63.819 499.775h121.375v-119.928h-121.375v119.928zM63.819 829.382h121.375v-119.928h-121.375v119.928z" />
<glyph unicode="&#xe927;" glyph-name="dssg-reset-password" d="M510.951 808.561c107.097 0 193.917-80.12 193.917-178.97h96.957c0 148.262-130.229 268.469-290.874 268.469s-290.875-120.208-290.875-268.469h96.958c0.001 98.85 86.82 178.97 193.917 178.97zM834.164 569.895h-646.426c-35.661 0-64.619-26.715-64.619-59.637v-447.498c0-32.98 28.959-59.725 64.619-59.725h646.426c35.661 0 64.619 26.746 64.619 59.725v447.497c0 32.923-28.958 59.638-64.619 59.638zM844.71 61.36c0-6.816-5.593-12.295-12.469-12.295h-639.493c-6.875 0-12.528 5.479-12.528 12.295v441.206c0 6.788 5.654 12.353 12.528 12.353h639.493c6.876 0 12.469-5.566 12.469-12.353v-441.206zM510.951 420.729c-53.549 0-96.958-40.058-96.958-89.499 0-33.038 19.635-61.59 48.479-77.061v-85.187c0-25.695 21.734-46.615 48.479-46.615s48.479 20.918 48.479 46.615v85.187c28.844 15.471 48.479 44.023 48.479 77.061 0 49.44-43.409 89.499-96.958 89.499z" />
<glyph unicode="&#xe928;" glyph-name="dssg-submit-to" d="M433.218 276.633h412.574c20.635 0 37.249-15.243 37.249-34.515v-136.954c0-19.096-16.614-34.513-37.249-34.513h-221.155c-20.724 0-37.338-15.415-37.338-34.512 0-19.008 16.702-34.513 37.338-34.513h221.064c62.001 0 111.843 46.338 111.843 103.537v136.955c0 57.42-50.016 103.497-111.93 103.497h-410.648l94.094 86.935c6.819 6.18 10.667 15.024 10.58 24.267-0.087 9.284-4.198 18-11.193 24.045-14.778 13.27-37.164 13.445-52.294 0.394l-155.568-143.789c-3.147-2.409-5.945-5.299-8.218-8.631-9.794-13.533-7.521-32.232 5.072-43.092 1.138-1.096 2.273-2.104 3.672-2.979l155.129-143.527c14.955-13.359 37.604-13.182 52.383 0.483 6.82 6.132 10.755 14.892 10.842 24.090 0.089 9.197-3.76 17.956-10.404 24.219l-95.842 88.604zM884.79 795.153c-0.262 19.71-18.976 35.433-43.197 34.468h-658.298c-26.144 0.965-44.773-14.629-44.773-34.468v-689.989c0.262-17.914 19.938-34.513 44.773-34.513h214.242c20.638 0 37.253-15.415 37.253-34.512 0-18.921-16.702-34.338-37.253-34.338h-214.242c-64.274 0-118.489 45.376-119.365 102.967v690.296c0 59.872 54.744 105.992 120.938 103.495h655.062c64.187 2.497 118.666-43.405 119.453-103.143v-274.481c0-19.008-16.703-34.467-37.339-34.467-20.638 0-37.253 15.459-37.253 34.467v274.218h-0.001z" />
<glyph unicode="&#xe929;" glyph-name="dssg-system-manage2" d="M798.626 335.886c-4.824 4.060-7.312 6.371-10.040 8.389-27.828 20.766-37.819 44.205-32.41 82.163 19.836 139.283-93.33 254.007-207.566 266.385-144.062 15.611-262.687-74.798-280.963-212.816-21.832-164.864 124.181-302.737 288.373-271.514 18.471 3.501 30.897-0.39 42.984-13.714 8.578-9.435 19.349-16.876 32.702-28.206-37.576-19.647-38.16-50.381-36.162-81.897 1.948-31.028-3.803-60.936-34.799-73.436-33.773-13.665-72.080-16.535-103.661 3.988-14.476 9.435-21.98 32.779-27.779 51.259-4.338 14.102-0.683 30.541-1.023 45.909-0.536 24.559-11.794 42.698-34.603 52.329-22.76 9.531-43.618 5.446-61.554-11.962-11.015-10.7-21.785-21.787-33.14-32.195-22.030-20.135-52.781-26.068-75.298-9.679-19.739 14.3-37.818 32.244-52.294 51.794-15.839 21.448-9.552 54.566 9.943 75.283 10.527 11.235 22.126 21.424 32.848 32.414 15.691 16.024 21.346 35.404 14.522 56.633-7.116 22.103-23.393 35.94-46.591 38.98-17.788 2.334-35.917 1.871-53.901 2.77-38.794 1.923-61.408 24.389-63.065 63.174-0.487 11.966-0.438 23.953 0 35.916 1.414 39.976 26.708 64.682 66.915 65.557 14.572 0.341 29.194-0.56 43.717 0.292 24.173 1.411 43.083 12.62 52.099 35.381 8.966 22.639 3.946 43.598-13.695 61.082-9.7 9.653-19.398 19.306-28.9 29.155-4.142 4.255-8.383 8.608-11.454 13.641-21.199 35.015-8.675 69.861 38.892 108.742 27.633 22.615 61.261 21.496 88.261-3.306 11.356-10.432 21.883-21.715 33.286-32.098 18.228-16.607 39.769-20.28 61.994-10.699 21.248 9.167 33.286 26.019 33.091 50.31-0.146 16.22-0.245 32.511 0.975 48.683 2.29 31.392 22.661 55.901 53.365 60.279 20.127 2.846 41.279 2.82 61.408 0.025 28.9-4.012 49.711-29.544 51.27-59.185 0.926-17.071-0.78-34.287 0.584-51.283 1.95-23.684 12.868-41.897 36.357-51.21 23.784-9.387 43.57-3.284 61.067 13.617 7.407 7.123 14.328 14.735 21.591 21.982 4.874 4.839 9.601 9.872 15.011 14.030 34.408 26.383 72.665 15.246 113.993-32.899 25.196-29.326 23.489-64.195-4.143-91.55-10.966-10.846-22.467-21.302-32.018-33.289-14.915-18.651-19.934-40.293-8.725-62.274 10.43-20.572 28.658-31.051 52.245-31.028 14.621 0 29.242 0.512 43.766-0.193 34.699-1.678 59.506-22.202 63.844-55.247 2.389-18.455 2.389-37.763-0.098-56.194-4.434-32.828-30.313-54.055-63.892-55.321-10.283-0.412-20.663-0.752-30.898 0.049-26.661 2.091-48.786-6.177-66.43-29.010zM338.558 493.965c21.151-22.153 42.011-44.67 63.65-66.408 41.231-41.434 94.84-42.723 134.511-3.769 40.939 40.194 40.353 92.767-2.631 135.247-21.833 21.641-45.178 41.848-65.892 66.115 55.462 16.486 105.66 7.441 150.692-23.902 71.301-49.653 97.912-133.495 68.815-215.174-5.507-15.539-0.927-23.318 8.968-32.947 53.267-52.013 106.535-104.099 159.221-156.694 30.262-30.154 28.655-66.287-2.878-93.569-25.44-21.982-57.118-21.204-82.948 3.987-53.317 51.94-106.294 104.365-158.635 157.325-12.135 12.303-21.688 15.49-39.623 9.459-70.18-23.539-134.219-9.143-187.731 41.726-50.294 47.779-65.452 107.38-53.219 174.056 2.534 1.533 5.117 3.039 7.699 4.548zM813.051 181.745c-17.739-2.141-29.728-11.282-31.336-30.104-1.462-17.119 14.426-32.681 31.92-32.729 17.692 0 32.361 14.93 31.387 32.925-1.121 19.355-12.866 28.303-31.971 29.908z" />
</font>
</defs>
</svg>
