<?xml version="1.0" encoding="UTF-8"?>
<svg width="47px" height="47px" viewBox="0 0 47 47" version="1.1" xmlns="http://www.w3.org/2000/svg" xmlns:xlink="http://www.w3.org/1999/xlink">
    <!-- Generator: Sketch 45.2 (43514) - http://www.bohemiancoding.com/sketch -->
    <title>alarm- gray</title>
    <desc>Created with Sketch.</desc>
    <defs></defs>
    <g id="Page-1" stroke="none" stroke-width="1" fill="none" fill-rule="evenodd">
        <g id="Artboard-Copy" transform="translate(-293.000000, -285.000000)">
            <g id="alarm--gray" transform="translate(294.000000, 286.000000)">
                <path d="M31.5202856,27.9586628 L14.3424343,27.9586628 L12,30.301097 L12,31.0819084 L12.7808114,31.8627199 L19.8081142,31.8627199 C19.8081142,33.5875323 21.2065475,34.9859656 22.9313599,34.9859656 C24.6561724,34.9859656 26.0546056,33.5875323 26.0546056,31.8627199 L33.0819084,31.8627199 L33.8627199,31.0819084 L33.8627199,30.301097 L31.5202856,27.9586628 Z M30.7394742,21.7121714 C30.7394742,18.5108445 28.81087,15.7639499 26.0546056,14.5583771 L26.0546056,13.1232457 C26.0546056,11.3984333 24.6561724,10 22.9313599,10 C21.2065475,10 19.8081142,11.3984333 19.8081142,13.1232457 L19.8081142,14.5583771 C17.0518499,15.7639499 15.1232457,18.5108445 15.1232457,21.7121714 L15.1232457,27.1778513 L30.7394742,27.1778513 L30.7394742,21.7121714 Z M21.3697371,13.1232457 C21.3697371,12.2612299 22.0693441,11.5616228 22.9313599,11.5616228 C23.7933757,11.5616228 24.4929828,12.2612299 24.4929828,13.1232457 L21.3697371,13.1232457 Z" id="Shape" fill="#78828B" fill-rule="nonzero"></path>
                <circle id="Oval" stroke="#78828B" stroke-width="2" cx="22.5" cy="22.5" r="22.5"></circle>
            </g>
        </g>
    </g>
</svg>