<?xml version="1.0" encoding="UTF-8"?>
<svg width="47px" height="47px" viewBox="0 0 47 47" version="1.1" xmlns="http://www.w3.org/2000/svg" xmlns:xlink="http://www.w3.org/1999/xlink">
    <!-- Generator: Sketch 45.2 (43514) - http://www.bohemiancoding.com/sketch -->
    <title>config- purple</title>
    <desc>Created with Sketch.</desc>
    <defs>
        <path d="M25.195066,24.118966 L24.8789342,24.118966 C24.5435596,24.116217 24.2494196,23.92104 24.109222,23.6378959 C24.0762343,23.5691716 24.0487446,23.4949493 24.0349998,23.4152291 C23.9717734,23.2392949 23.9003001,23.0661097 23.8205799,22.9011714 C23.7793454,22.840694 23.7491067,22.7774676 23.7243659,22.7087433 C23.6913782,22.6180272 23.6748844,22.5218132 23.6748844,22.4228502 C23.6748844,22.1864386 23.7710984,21.9720188 23.9250409,21.8153274 L24.1009751,21.6393932 C24.3181439,21.4167264 24.3291398,21.0895988 24.1477076,20.866932 C24.015757,20.7047427 23.8755594,20.5508002 23.7298639,20.4023557 C23.5786704,20.2511623 23.421979,20.1082157 23.2570407,19.9707671 C23.0536167,19.8085778 22.7649747,19.8030798 22.5560528,19.9542733 L22.4296001,20.080726 L22.3113943,20.1961828 C22.0557399,20.4408413 21.6901266,20.5040677 21.3794927,20.380364 C21.3382581,20.3638701 21.2970236,20.3446273 21.258538,20.3198866 C21.060612,20.2236725 20.857188,20.1412034 20.6482662,20.0697301 C20.6097805,20.0614832 20.5740439,20.0477383 20.5383073,20.0339935 C20.4393443,19.9955079 20.3431303,19.9322815 20.2606611,19.8498123 C20.1204635,19.7096148 20.0407433,19.5336806 20.0160026,19.3494994 C20.0077557,19.2780262 20.0077557,19.2065529 20.0160026,19.1350796 L20.0160026,18.9866351 C20.0160026,18.70624 19.8125786,18.4698284 19.5459284,18.4230958 L19.4469654,18.4148489 C19.2545373,18.4011041 19.0648582,18.3928571 18.8724302,18.3928571 C18.6800021,18.3928571 18.4903231,18.4011041 18.300644,18.4175979 C18.2676563,18.4203469 18.2346687,18.4230958 18.198932,18.4258448 C17.9322817,18.4725773 17.7288578,18.70624 17.7288578,18.9893841 L17.7288578,19.2450385 C17.7288578,19.6134007 17.4979442,19.9267836 17.1708165,20.0504873 C17.1515737,20.0587342 17.1295819,20.0669811 17.1075901,20.0724791 C16.8794254,20.1494503 16.6567587,20.2429154 16.4423389,20.3473763 C16.4230961,20.3556232 16.4066022,20.3638701 16.3873594,20.372117 C16.2774006,20.4215985 16.1591948,20.4490883 16.0299931,20.4490883 C15.7935815,20.4490883 15.5791616,20.3528742 15.4252192,20.1989318 L15.2410381,20.0174996 C15.0431121,19.8195737 14.7352272,19.7975819 14.5125605,19.9515243 C14.4878197,19.9735161 14.46033,19.9927589 14.4355893,20.0147507 C14.2871448,20.1412034 14.1469472,20.2704051 14.0122476,20.4051047 C13.8775479,20.5398043 13.7483462,20.6800019 13.6246425,20.8256974 C13.6026507,20.8504382 13.5806589,20.8779279 13.5586672,20.9026686 C13.4019758,21.1253354 13.4239675,21.4332203 13.6246425,21.6338952 L13.8060747,21.8153274 C14.064478,22.0764797 14.1249554,22.4613358 13.9820089,22.7774676 C13.973762,22.7967104 13.9627661,22.8159532 13.9517702,22.835196 C13.8473092,23.0468669 13.7538442,23.2695336 13.676873,23.4976983 C13.671375,23.522439 13.6603791,23.5444308 13.6521322,23.5691716 C13.6108976,23.6763815 13.5449223,23.7808424 13.4569552,23.8660605 C13.2892679,24.0337478 13.0693501,24.116217 12.8494324,24.116217 L12.593778,24.118966 C12.3133828,24.118966 12.0769712,24.3223899 12.0302387,24.5890402 C12.0274897,24.6220279 12.0247407,24.6550155 12.0219918,24.6907522 C12.0082469,24.8749333 12,25.0756083 12,25.2625384 C12,25.4632133 12.0082469,25.6501434 12.0219918,25.8370735 L12.0302387,25.9360365 C12.0769712,26.2026868 12.3106338,26.4061107 12.591029,26.4061107 L12.8466834,26.4061107 C13.2122967,26.4061107 13.5229305,26.6342754 13.6466343,26.9559052 C13.6548812,26.9778969 13.6631281,26.9998887 13.6686261,27.0191315 C13.7483462,27.2500452 13.8418113,27.4727119 13.9462722,27.6871317 C13.9572681,27.7063745 13.965515,27.7228684 13.973762,27.7421112 C14.0232434,27.8520701 14.0507332,27.9730248 14.0507332,28.0994775 C14.0507332,28.3358891 13.9545191,28.550309 13.8005767,28.7070004 L13.6273915,28.8801856 C13.4267165,29.0891075 13.4047247,29.3914944 13.5531692,29.6114122 L13.6273915,29.7021283 C13.7483462,29.8478238 13.8775479,29.9852724 14.0122476,30.119972 C14.1469472,30.2546717 14.2843958,30.3838733 14.4300913,30.5048281 C14.46033,30.5295689 14.4878197,30.5543096 14.5180584,30.5790504 C14.7159844,30.71375 14.9798857,30.7082521 15.1750627,30.5653055 L15.3015155,30.4388528 L15.4197213,30.320647 C15.6863716,30.0677416 16.0712276,30.0072642 16.3873594,30.1529597 C16.4038533,30.1584576 16.4203471,30.1667046 16.434092,30.1749515 C16.6512608,30.2849104 16.8766765,30.3783754 17.1075901,30.4553466 C17.1268329,30.4608446 17.1460757,30.4690915 17.1653185,30.4745894 C17.2780264,30.515824 17.3824873,30.5817993 17.4732034,30.6725154 C17.6408907,30.8402027 17.7233599,31.0601205 17.7233599,31.2800382 L17.7261088,31.5301947 C17.7261088,31.8243347 17.9515245,32.0689932 18.2401666,32.0992319 C18.4490885,32.1212237 18.6580104,32.1322196 18.8696812,32.1322196 C19.0813521,32.1322196 19.2930229,32.1239727 19.4991958,32.1019809 C19.7878379,32.0689932 20.0132536,31.8243347 20.0132536,31.5301947 L20.0132536,31.2745403 C20.0132536,30.9309188 20.2166775,30.6340298 20.5080686,30.4965812 C20.568546,30.4690915 20.6290234,30.4470997 20.6949987,30.4333548 C20.8819288,30.3673795 21.0661099,30.2904083 21.2447931,30.2051902 C21.2970236,30.1722025 21.352003,30.1447128 21.4097314,30.122721 C21.5031965,30.0869844 21.6049084,30.0677416 21.7093694,30.0677416 C21.9265382,30.0677416 22.1244642,30.1502107 22.2784066,30.2849104 C22.3058963,30.3069021 22.3278881,30.3316429 22.3526288,30.3591326 L22.4983244,30.5048281 C22.6989993,30.7055031 23.0151311,30.7247459 23.2377979,30.5653055 C23.2597896,30.5460627 23.2762835,30.5323178 23.2955263,30.515824 C23.4467197,30.3893713 23.5896663,30.2574206 23.7271149,30.1172231 C23.8645635,29.9797745 23.9992631,29.8340789 24.1257158,29.6828855 C24.1422097,29.6636427 24.1587035,29.6443999 24.1751973,29.6224081 C24.3318887,29.4079883 24.3181439,29.1083503 24.1367117,28.9049264 L24.0954771,28.8636918 L23.9360368,28.7042514 C23.6803824,28.448597 23.619905,28.0719878 23.7546046,27.758605 C23.7683495,27.7283663 23.7820943,27.7008766 23.7985882,27.6733869 C23.9003001,27.467214 23.9882672,27.2527941 24.0652384,27.0328764 C24.0734854,27.0026377 24.0817323,26.975148 24.0954771,26.9476582 C24.1367117,26.8404483 24.2026871,26.7414853 24.2879052,26.6535182 C24.4555925,26.4858309 24.6755103,26.4033618 24.895428,26.4033618 L25.1428355,26.4033618 C25.4479714,26.4006128 25.6981279,26.1614522 25.7146217,25.8590653 C25.7394016,25.6597349 25.7476556,25.4598043 25.7476094,25.2597894 C25.7448604,25.0508675 25.7338645,24.8391967 25.7146217,24.6302748 C25.6788851,24.3608755 25.4644652,24.1464557 25.195066,24.118966 Z" id="path-1"></path>
    </defs>
    <g id="Page-1" stroke="none" stroke-width="1" fill="none" fill-rule="evenodd">
        <g id="Artboard-Copy" transform="translate(-238.000000, -125.000000)">
            <g id="config--purple" transform="translate(239.000000, 126.000000)">
                <path d="M24.167989,10 L15.5656567,10 C15.3821735,9.99962748 15.2061383,10.0725409 15.076656,10.2025432 C14.9471738,10.3325455 14.8749664,10.5088715 14.8760744,10.6923518 L14.8760744,34.2323134 C14.8760744,34.6089528 15.1848633,34.9246652 15.5656567,34.9246652 L31.7866284,34.9246652 C31.9701116,34.9250377 32.1461468,34.8521242 32.2756291,34.722122 C32.4051114,34.5921197 32.4773187,34.4157937 32.4762108,34.2323134 L32.4762108,14.5002868 L32.4762108,18.3082217 L31.0915071,16.9235181 L31.0915071,33.5399616 L16.260778,33.5399616 L16.260778,11.3847036 L25.5526927,11.3847036 L24.167989,10 Z" id="Shape" fill="#968BCC" fill-rule="nonzero"></path>
                <path d="M24.167989,10 L32.4762108,18.3082217 L25.5388456,18.3082217 C24.7836293,18.3036858 24.172525,17.6925815 24.167989,16.9373651 L24.167989,10 Z" id="Shape" fill="#968BCC" fill-rule="nonzero"></path>
                <g id="Path">
                    <use fill="#968BCC" fill-rule="evenodd" xlink:href="#path-1"></use>
                    <path stroke="#FFFFFF" stroke-width="1" d="M25.195066,23.618966 L25.2458228,23.6215489 C25.7461983,23.6726076 26.1441622,24.0661001 26.2125142,24.5844163 C26.232881,24.8055406 26.244633,25.0302988 26.2476093,25.2596738 C26.2476646,25.4988828 26.2366061,25.7131813 26.2138795,25.8862976 C26.1829814,26.4527627 25.7156403,26.8982217 25.1428355,26.9033618 L24.895428,26.9033618 C24.7988999,26.9033618 24.7090489,26.9394813 24.6470253,27.0014158 C24.6057383,27.0440347 24.5777268,27.0866479 24.5426907,27.171265 C24.5488738,27.1588988 24.5501476,27.1551686 24.5371676,27.1980516 C24.4510906,27.4439859 24.3549588,27.6757455 24.2273346,27.9306348 C24.222752,27.9382725 24.217554,27.9484208 24.2139684,27.9560509 C24.1564501,28.089869 24.185042,28.2461499 24.2895902,28.350698 L24.4490305,28.5101384 L24.5098594,28.5721189 C24.8469422,28.9500602 24.8757565,29.5111819 24.5751973,29.9224081 C24.5529233,29.9521068 24.5341147,29.9748338 24.5092543,30.0036631 C24.3767553,30.1620857 24.2329252,30.3185196 24.0841513,30.4672588 C23.9354134,30.6189714 23.7803927,30.7621245 23.620922,30.8954523 C23.6101652,30.9046474 23.6101652,30.9046474 23.6007186,30.9126766 C23.5835827,30.9272459 23.5835827,30.9272459 23.5288915,30.9718328 C23.1055212,31.2749869 22.5169251,31.2305356 22.144771,30.8583815 L21.9809818,30.693615 C21.9691623,30.6804762 21.9691623,30.6804762 21.9621022,30.6727847 C21.9553708,30.6659498 21.9605518,30.670939 21.9491543,30.6611987 C21.8793681,30.6001358 21.7964508,30.5677416 21.7093694,30.5677416 C21.6671608,30.5677416 21.6258925,30.5753734 21.5877291,30.5899649 C21.5610728,30.6001197 21.5359072,30.6127024 21.4600294,30.656492 C21.2624242,30.7507345 21.0620604,30.8340318 20.7969758,30.9228451 C20.774296,30.92757 20.74912,30.9362418 20.7213779,30.948797 C20.5954804,31.0081826 20.5132536,31.1347601 20.5132536,31.2745403 L20.5132536,31.5301947 C20.5132536,32.078021 20.0976941,32.5368358 19.5522283,32.5991605 C19.3388578,32.62192 19.1137386,32.6322196 18.8696812,32.6322196 C18.6408751,32.6322196 18.4144795,32.6203431 18.1880708,32.5965105 C17.6440968,32.5395228 17.2261088,32.0795807 17.226139,31.5356889 L17.2233599,31.2800382 C17.2233599,31.1835102 17.1872404,31.0936591 17.11965,31.0260688 C17.0814347,30.9878535 17.0393347,30.9609095 17.027958,30.9553514 C16.9876103,30.942836 16.9876103,30.942836 16.9682861,30.935839 C16.9587461,30.9325273 16.9587461,30.9325273 16.9494762,30.9296883 C16.6937563,30.8444483 16.4458417,30.7413401 16.1768441,30.6036979 C16.1936901,30.6134892 16.2072163,30.6199583 16.1780808,30.6070549 C16.044831,30.5456441 15.8797004,30.5735015 15.7732747,30.6742004 L15.6550689,30.7924062 L15.4704982,30.9686885 C15.105152,31.2362661 14.6102651,31.246607 14.2014395,30.966029 C14.1718291,30.9414241 14.1718291,30.9414241 14.1486792,30.9215675 C14.1285328,30.904313 14.1285328,30.904313 14.1107136,30.8895331 C13.9622737,30.7662999 13.8167659,30.6315971 13.6586942,30.4735254 C13.5006225,30.3154537 13.3659197,30.1699459 13.2404128,30.0187472 L13.1387449,29.8911486 C12.8549309,29.4706835 12.9073003,28.908087 13.2738381,28.5266322 L13.4439085,28.3565895 C13.5124098,28.286865 13.5507332,28.195923 13.5507332,28.0994775 C13.5507332,28.0468453 13.5395441,27.995611 13.5141894,27.9390708 C13.5140558,27.9385923 13.5140558,27.9385923 13.4967773,27.9061164 C13.3812486,27.6689786 13.2807443,27.4277683 13.1878641,27.1564921 C13.1888739,27.159679 13.1888739,27.159679 13.1799615,27.1353947 C13.1270934,26.9979376 12.9960048,26.9061107 12.8466834,26.9061107 L12.591029,26.9061107 C12.0699763,26.9061107 11.6267837,26.5303938 11.5319658,25.9775593 L11.523338,25.8737393 C11.5078338,25.662883 11.5,25.465613 11.5,25.2625384 C11.5,25.0678613 11.50832,24.8553233 11.5234645,24.6524039 C11.5277922,24.5975922 11.5277922,24.5975922 11.537745,24.5027269 C11.6268079,23.9945445 12.0729032,23.618966 12.5884019,23.6189949 L12.8494324,23.616217 C12.9459605,23.616217 13.0358115,23.5800975 13.1090576,23.5069404 C13.1412241,23.4757791 13.1684211,23.4339816 13.1777906,23.4110577 C13.1884048,23.3807851 13.1884048,23.3807851 13.1951013,23.3636284 L13.1985075,23.3548662 C13.1974289,23.3570688 13.1974289,23.3570688 13.2031052,23.337873 C13.2855865,23.0933749 13.3867323,22.8503232 13.5128224,22.59577 L13.5176486,22.5871266 C13.5295597,22.5656891 13.5256977,22.5728981 13.5264195,22.571462 C13.586911,22.4376828 13.5585406,22.276038 13.4525213,22.1688808 L13.2710891,21.9874486 C12.9005036,21.6168631 12.8515576,21.0386888 13.1849625,20.5704867 C13.1940633,20.5600649 13.1940633,20.5600649 13.2091992,20.5421152 C13.2270509,20.5208921 13.2270509,20.5208921 13.2434955,20.502082 C13.3759795,20.3460453 13.514386,20.1958595 13.6586942,20.0515513 C13.80254,19.9077054 13.9524831,19.7694652 14.1034073,19.641046 C14.1408345,19.6090931 14.1408345,19.6090931 14.1642527,19.5906961 C14.1800073,19.5781672 14.1800073,19.5781672 14.2282196,19.5402455 C14.6512626,19.2477713 15.227312,19.2966667 15.5919233,19.661298 L15.7787726,19.8453784 C15.844672,19.9112778 15.9340968,19.9490883 16.0299931,19.9490883 C16.0841484,19.9490883 16.132688,19.9384264 16.1903998,19.9125445 C16.194191,19.9108878 16.194191,19.9108878 16.2053201,19.905767 C16.2209935,19.8985174 16.2209935,19.8985174 16.2233542,19.8978814 C16.4639396,19.780673 16.705757,19.6803525 16.9863223,19.5874078 C16.9772925,19.5896653 16.9706758,19.5920131 16.9939633,19.582809 C17.1351358,19.5294245 17.2288578,19.3965156 17.2288578,19.2450385 L17.2288578,18.9893841 C17.2288578,18.4663601 17.6038252,18.0225211 18.1605838,17.9273176 C18.1856618,17.9253635 18.1856618,17.9253635 18.2101379,17.923379 C18.2345251,17.9213746 18.2345251,17.9213746 18.2573292,17.9194776 C18.4617662,17.9017005 18.6658996,17.8928571 18.8724302,17.8928571 C19.0680859,17.8928571 19.2672348,17.9007371 19.4884881,17.916576 L19.6322417,17.9306022 C20.140424,18.0196651 20.5160026,18.4657604 20.5160026,18.9866351 L20.512707,19.1923917 C20.5088542,19.2257832 20.5088542,19.2587958 20.5115517,19.2829331 C20.5228821,19.3672817 20.557586,19.4396305 20.6142145,19.496259 C20.6477533,19.5297978 20.6854263,19.5547284 20.6964212,19.5596518 L20.7177968,19.5673207 C20.7473578,19.5786903 20.754722,19.5811913 20.81011,19.5966481 C21.0431153,19.6763605 21.2647611,19.7669657 21.5289168,19.8992973 C21.5341079,19.9026345 21.545679,19.908322 21.5644791,19.9158426 C21.6994461,19.9695906 21.8562398,19.9396935 21.9620245,19.8384947 L22.0760467,19.7271726 L22.2629184,19.5492149 C22.6541802,19.266065 23.1901619,19.2779757 23.5771329,19.5866565 C23.754021,19.7340633 23.9218455,19.8872306 24.0867059,20.0521219 C24.2508932,20.219407 24.3992963,20.3838933 24.5353251,20.5510955 C24.8812454,20.975634 24.8490714,21.5884711 24.4545285,21.9929466 L24.2817091,22.1657383 C24.2132078,22.2354628 24.1748844,22.3264048 24.1748844,22.4228502 C24.1748844,22.4644461 24.1815043,22.5027865 24.1948096,22.5393836 C24.20728,22.5740234 24.2194216,22.5985707 24.2707544,22.683587 C24.356317,22.8606131 24.4347421,23.0491349 24.5277298,23.3302757 C24.531903,23.3544803 24.5421341,23.3843441 24.5573023,23.4160309 C24.6173324,23.5372682 24.7440917,23.6178439 24.8789342,23.618966 L25.195066,23.618966 Z"></path>
                </g>
                <path d="M22.2626501,25.3098965 C22.2626501,25.7112464 22.1966748,26.0961025 22.072971,26.4534689 C22.0262385,26.5909175 21.9712591,26.7228681 21.9080327,26.8520698 C21.7375965,27.2039383 21.5066828,27.522819 21.2345346,27.7977162 C20.9623863,28.0726134 20.6435056,28.3007781 20.2916371,28.4739634 C20.1624355,28.5371897 20.0277358,28.5949181 19.8902872,28.6416506 C19.5329208,28.7653544 19.1453158,28.8340787 18.7467148,28.8340787 L18.7357189,28.8340787 C18.339867,28.8340787 17.9577598,28.7681034 17.6031424,28.6471486 C17.4601959,28.6004161 17.3227473,28.5399387 17.1880477,28.4767123 C16.8389282,28.3062761 16.5227964,28.0781114 16.2506482,27.8059631 C15.975751,27.5338149 15.7475863,27.2149341 15.5744011,26.8658147 C15.5084257,26.733864 15.4506973,26.5964154 15.4039648,26.4534689 C15.280261,26.0961025 15.2142857,25.7167444 15.2142857,25.3181434 C15.2142857,24.9222914 15.28301,24.5209415 15.4039648,24.1663241 C15.4534463,24.0261265 15.5111747,23.8886779 15.5744011,23.7539783 C15.7475863,23.4021099 15.975751,23.0859781 16.2506482,22.8138298 C16.5255454,22.5389326 16.8444262,22.310768 17.1962946,22.1403317 C17.3282452,22.0771053 17.4629449,22.0193769 17.6058914,21.9726444 C17.9632578,21.8516896 18.3426159,21.7857143 18.7384679,21.7857143 L18.7494638,21.7857143 C19.1508137,21.7857143 19.5356698,21.8544386 19.8930362,21.9781423 C20.0304848,22.0248749 20.1651844,22.0826033 20.2943861,22.1458296 C20.6462545,22.3190149 20.9623863,22.5471796 21.2372835,22.8220768 C21.5094318,23.096974 21.7348475,23.4131058 21.9080327,23.7594762 C21.9712591,23.8886779 22.0289875,24.0261265 22.07572,24.1635751 C22.1994238,24.5209415 22.2653991,24.9057976 22.2653991,25.3043985 L22.2653991,25.3098965 L22.2626501,25.3098965 Z" id="Path" fill="#FFFFFF"></path>
                <circle id="Oval" stroke="#968BCC" stroke-width="2" cx="22.5" cy="22.5" r="22.5"></circle>
            </g>
        </g>
    </g>
</svg>