<?xml version="1.0" encoding="UTF-8"?>
<svg width="47px" height="47px" viewBox="0 0 47 47" version="1.1" xmlns="http://www.w3.org/2000/svg" xmlns:xlink="http://www.w3.org/1999/xlink">
    <!-- Generator: Sketch 45.2 (43514) - http://www.bohemiancoding.com/sketch -->
    <title>firewal- purple</title>
    <desc>Created with Sketch.</desc>
    <defs></defs>
    <g id="Page-1" stroke="none" stroke-width="1" fill="none" fill-rule="evenodd">
        <g id="Artboard-Copy" transform="translate(-513.000000, -65.000000)">
            <g id="firewal--purple" transform="translate(514.000000, 66.000000)">
                <path d="M19.8640225,10.2193598 C19.8640225,10.2193598 20.3523551,10.4473918 20.7858311,11.3148814 C21.219307,12.1823711 21.0461317,14.1781888 20.8944689,14.5035647 C20.7428061,14.8289405 20.004929,16.8247583 18.8550884,16.0868812 C17.7052479,15.3490041 16.989421,15.9352184 16.989421,15.9352184 C16.989421,15.9352184 17.7488106,16.1089315 17.8353982,16.8677832 C17.9219858,17.6271728 17.7918355,18.5817879 16.989421,19.0152638 C16.1870065,19.4492775 15.5362548,20.9244939 15.8395804,21.813496 C16.1434438,22.7030359 16.6419949,23.2236373 17.1846465,23.4403752 L19.7500065,23.4403752 C19.7500065,23.4403752 19.5870496,21.916218 20.4819677,20.7615371 C21.3768857,19.6063184 22.1088469,19.2320017 22.1900564,17.2797467 C22.1900564,17.2797467 22.7434642,17.6540634 22.9058832,18.3860245 C23.0688401,19.1179857 22.8730767,19.9806351 22.3852819,20.6313868 C21.8969492,21.2821385 22.4654158,22.6325827 22.9623534,22.648717 C23.4592911,22.6648513 24.1589836,22.925152 24.5817033,21.1358538 C24.5817033,21.1358538 25.0861703,21.0546443 25.3136645,22.0469061 C25.5411587,23.039168 25.5250243,23.4409131 25.5250243,23.4409131 L29.1369651,23.4409131 C29.1369651,23.4409131 28.4534069,20.8922253 27.2169787,19.6552592 C27.2169787,19.6552592 26.956678,19.8182161 27.233113,18.0122457 C27.5095481,16.2062753 27.8515961,15.4581798 26.956678,14.4981866 C26.06176,13.5381934 25.7691907,13.6844781 25.7691907,13.6844781 C25.7691907,13.6844781 24.3214026,15.8647651 23.8658764,15.8808995 C23.8658764,15.8808995 24.6795849,14.4981866 24.1751179,12.4969907 C23.6706509,10.4957948 20.8724187,9.58474244 19.8640225,10.2193598 Z" id="Shape" fill="#968BCC" fill-rule="nonzero"></path>
                <path d="M18.9852388,27.3884481 C18.9852388,28.2268959 18.2989915,28.9131431 17.4605437,28.9131431 L11.5451571,28.9131431 C10.7067093,28.9131431 10.020462,28.2268959 10.020462,27.3884481 L10.020462,25.4103781 C10.020462,24.5719302 10.7067093,23.885683 11.5451571,23.885683 L17.4605437,23.885683 C18.2989915,23.885683 18.9852388,24.5719302 18.9852388,25.4103781 L18.9852388,27.3884481 Z" id="Shape" fill="#968BCC" fill-rule="nonzero"></path>
                <path d="M25.2329928,33.2457511 C25.2329928,34.0841989 24.5467455,34.7704461 23.7082977,34.7704461 L11.5451571,34.7704461 C10.7067093,34.7704461 10.020462,34.0841989 10.020462,33.2457511 L10.020462,31.2676811 C10.020462,30.4292332 10.7067093,29.742986 11.5451571,29.742986 L23.7082977,29.742986 C24.5467455,29.742986 25.2329928,30.4292332 25.2329928,31.2676811 L25.2329928,33.2457511 Z" id="Shape" fill="#968BCC" fill-rule="nonzero"></path>
                <path d="M34.9948059,33.2457511 C34.9948059,34.0841989 34.3085587,34.7704461 33.4701108,34.7704461 L27.8962344,34.7704461 C27.0577866,34.7704461 26.3715393,34.0841989 26.3715393,33.2457511 L26.3715393,31.2676811 C26.3715393,30.4292332 27.0577866,29.742986 27.8962344,29.742986 L33.4701108,29.742986 C34.3085587,29.742986 34.9948059,30.4292332 34.9948059,31.2676811 L34.9948059,33.2457511 Z" id="Shape" fill="#968BCC" fill-rule="nonzero"></path>
                <path d="M34.9948059,27.3884481 C34.9948059,28.2268959 34.3085587,28.9131431 33.4701108,28.9131431 L20.9165192,28.9131431 C20.0780714,28.9131431 19.3918241,28.2268959 19.3918241,27.3884481 L19.3918241,25.4103781 C19.3918241,24.5719302 20.0780714,23.885683 20.9165192,23.885683 L33.4701108,23.885683 C34.3085587,23.885683 34.9948059,24.5719302 34.9948059,25.4103781 L34.9948059,27.3884481 Z" id="Shape" fill="#968BCC" fill-rule="nonzero"></path>
                <circle id="Oval" stroke="#968BCC" stroke-width="2" cx="22.5" cy="22.5" r="22.5"></circle>
            </g>
        </g>
    </g>
</svg>