<?xml version="1.0" encoding="UTF-8"?>
<svg width="47px" height="47px" viewBox="0 0 47 47" version="1.1" xmlns="http://www.w3.org/2000/svg" xmlns:xlink="http://www.w3.org/1999/xlink">
    <!-- Generator: Sketch 45.2 (43514) - http://www.bohemiancoding.com/sketch -->
    <title>keypair- purple</title>
    <desc>Created with Sketch.</desc>
    <defs></defs>
    <g id="Page-1" stroke="none" stroke-width="1" fill="none" fill-rule="evenodd">
        <g id="Artboard-Copy" transform="translate(-73.000000, -185.000000)">
            <g id="keypair--purple" transform="translate(74.000000, 186.000000)">
                <path d="M23.4233556,24.9071156 C23.2238585,24.9071156 23.0804699,25.2344156 23.0804699,25.2344156 L14.9197899,33.3608071 L10.5994299,34.8071614 C9.43673559,33.6413499 10.6368356,30.5990185 10.6368356,30.5990185 L13.0152156,29.6545242 L13.0557384,28.1271242 L14.5207956,28.1146556 L15.2470899,27.3727757 L15.293847,25.9326556 L16.6653899,26.0105842 L17.2888185,23.9595042 L19.5019899,21.6528185 L19.8853985,21.2257699 C18.7227042,18.4078728 19.1435185,14.8106899 21.4876099,12.4665985 C24.5704642,9.38062703 29.4986671,9.31204985 32.4942414,12.3107413 C35.4929328,15.3125499 35.7267185,20.4215471 32.6407471,23.5075185 C30.0472842,26.1040985 25.2344156,26.2100813 23.4233556,24.9102328 L23.4233556,24.9071156 Z M22.0985699,24.0966585 C22.0007936,24.0008045 21.8688323,23.9478945 21.7319195,23.9496498 C21.5950067,23.9514051 21.4644452,24.0076808 21.3691585,24.1060099 L13.9597099,31.5248099 C13.757765,31.7228175 13.752212,32.0462816 13.9472413,32.2511042 C14.1524537,32.4481982 14.4782965,32.4426283 14.6766528,32.2386356 L22.0861014,24.8229528 C22.2900939,24.6245965 22.2956639,24.2987538 22.0985699,24.0935414 L22.0985699,24.0966585 Z M31.0634728,13.831907 C29.9163642,12.6816813 28.473127,12.2639841 28.1021871,12.6380413 C27.7281299,13.0120985 28.4139013,14.1841442 29.56101,15.3343699 C30.7112357,16.4814784 31.8832814,17.170367 32.2542214,16.799427 C32.6282785,16.4253699 32.2105814,14.9790156 31.0634728,13.831907 Z" id="Shape" fill="#968BCC" fill-rule="nonzero"></path>
                <circle id="Oval" stroke="#968BCC" stroke-width="2" cx="22.5" cy="22.5" r="22.5"></circle>
            </g>
        </g>
    </g>
</svg>