<?xml version="1.0" encoding="UTF-8"?>
<svg width="47px" height="47px" viewBox="0 0 47 47" version="1.1" xmlns="http://www.w3.org/2000/svg" xmlns:xlink="http://www.w3.org/1999/xlink">
    <!-- Generator: Sketch 45.2 (43514) - http://www.bohemiancoding.com/sketch -->
    <title>network-red</title>
    <desc>Created with Sketch.</desc>
    <defs></defs>
    <g id="Page-1" stroke="none" stroke-width="1" fill="none" fill-rule="evenodd">
        <g id="Artboard-Copy" transform="translate(-293.000000, -575.000000)">
            <g id="network-red" transform="translate(294.000000, 576.000000)">
                <path d="M13.6272278,16.1394458 C13.6272278,16.1394458 15.2779751,11.0871588 20.9438731,10.1333937 C20.9438731,10.1333937 20.0751466,11.3772901 19.2481055,13.3598542 C19.2481055,13.3598542 17.5106524,13.1714356 17.1038015,14.9355675 C17.1038015,14.9355675 15.2479615,15.2690517 13.623893,16.1394458 L13.6272278,16.1394458 Z M17.1471545,15.9510271 C17.1471545,15.9510271 14.7560721,16.4562558 13.220377,17.5851001 C13.220377,17.5851001 12.4216821,20.9416195 14.3492213,24.0813741 C14.3492213,24.0813741 16.3351203,24.5149036 18.3343586,24.3148131 C18.3343586,24.3148131 18.3210192,23.0675818 19.1347209,22.4456336 C19.1347209,22.4456336 18.1476074,19.9144879 18.3927183,17.2232697 C18.3943857,17.2232697 17.3789261,16.9781587 17.1471545,15.9510271 L17.1471545,15.9510271 Z M15.1479162,25.2535714 C15.1479162,25.2535714 17.6840642,29.1603398 23.5683945,28.6234301 C23.5683945,28.6234301 21.4791154,26.6425334 21.0489207,26.0055784 C21.0489207,26.0055784 19.4098454,26.4107618 18.8445895,25.2552388 C18.8445895,25.2535713 16.7269643,25.5720488 15.1479162,25.2535714 Z M21.8742943,25.398637 C21.8742943,25.398637 22.2794777,25.2252252 22.4295456,24.2414465 C22.4295456,24.2414465 25.6976917,23.0975954 27.7152716,20.0312074 C27.7152716,20.0312074 28.3522266,20.0745604 28.800763,19.7277367 C28.800763,19.7277367 30.3247862,21.1450449 31.0484471,22.9958827 C31.0484471,22.9958827 29.6261366,27.0477168 25.0190511,28.3483055 C25.0190511,28.349973 22.9464463,27.0043639 21.8742943,25.398637 Z M30.2347454,14.2719337 C30.2347454,14.2719337 32.610821,16.9898307 31.5403364,21.6085881 C31.5403364,21.6085881 30.221406,19.4859606 29.5661094,18.9940713 C29.5661094,18.9940713 30.1547092,17.8552224 29.4777361,17.0165094 C29.4777361,17.0165094 30.1063539,15.7909547 30.2364128,14.2719337 L30.2347454,14.2719337 Z M20.2202122,13.6683272 C20.2202122,13.6683272 20.9171944,14.2285808 20.9438731,14.7404792 C20.9438731,14.7404792 23.8902068,14.9222281 26.443029,16.5229527 C26.443029,16.5229527 27.5835453,15.5875293 28.6857109,16.282844 C28.6857109,16.282844 29.2926523,15.1640042 29.4193763,13.1080736 C29.4193763,13.1080736 27.1383438,10.1183869 22.3845252,10.011672 C22.3845252,10.011672 20.5303526,12.5294783 20.2202122,13.6683272 Z M19.4098454,17.2866317 C19.4098454,17.2866317 20.7821333,17.3733376 21.0139048,15.752604 C21.0139048,15.752604 23.7284669,16.0027172 25.89278,17.2866317 C25.89278,17.2866317 25.370877,18.925707 26.7131513,19.7277367 C26.7131513,19.7277367 25.3608725,21.7603234 22.2778103,23.2193172 C22.2778103,23.2193172 21.6708689,21.8103461 20.076814,22.0687964 C20.076814,22.0687964 19.4281871,20.8265674 19.4098454,17.2866317 L19.4098454,17.2866317 Z M33.6979797,31.4613814 L24.2953902,31.4613814 C24.1090407,31.1550837 23.8538387,30.8964562 23.5500528,30.7060395 L23.5500528,29.3270819 L21.1122827,29.3270819 L21.1122827,30.7060395 C20.808812,30.8961255 20.5520291,31.1562433 20.3652779,31.4613814 L11.2611568,31.4613814 C10.5705225,31.4862821 10.0235036,32.0533792 10.0235036,32.7444622 C10.0235036,33.4355452 10.5705225,34.0026423 11.2611568,34.027543 L20.4953368,34.027543 C20.9286163,34.6055407 21.6088018,34.9457365 22.3311678,34.9457365 C23.0535337,34.9457365 23.7337192,34.6055407 24.1669988,34.027543 L33.6979797,34.027543 C34.388614,34.0026423 34.9356329,33.4355452 34.9356329,32.7444622 C34.9356329,32.0533792 34.388614,31.4862821 33.6979797,31.4613814 L33.6979797,31.4613814 Z" id="Shape" fill="#EE6B63" fill-rule="nonzero"></path>
                <circle id="Oval" stroke="#EE6B63" stroke-width="2" cx="22.5" cy="22.5" r="22.5"></circle>
            </g>
        </g>
    </g>
</svg>