<?xml version="1.0" encoding="UTF-8"?>
<svg width="47px" height="47px" viewBox="0 0 47 47" version="1.1" xmlns="http://www.w3.org/2000/svg" xmlns:xlink="http://www.w3.org/1999/xlink">
    <!-- Generator: Sketch 45.2 (43514) - http://www.bohemiancoding.com/sketch -->
    <title>port-red</title>
    <desc>Created with Sketch.</desc>
    <defs></defs>
    <g id="Page-1" stroke="none" stroke-width="1" fill="none" fill-rule="evenodd">
        <g id="Artboard-Copy" transform="translate(-348.000000, -575.000000)">
            <g id="port-red" transform="translate(349.000000, 576.000000)">
                <path d="M33.7735094,12 L11.2447919,12 C10.5509676,12 10,12.5713616 10,13.2447919 L10,24.5907761 C10,25.2846005 10.5713616,25.835568 11.2447919,25.835568 L13.0405842,25.835568 L13.0405842,27.5701125 C13.0405842,28.24351 13.5915846,28.7740835 14.2445552,28.7740835 L18.1830028,28.7740835 L18.1830028,31.1820584 C18.1830028,31.8554559 18.7340032,32.3860294 19.3869738,32.3860294 L25.6109663,32.3860294 C26.2843638,32.3860294 26.8149373,31.835029 26.8149373,31.1820584 L26.8149373,28.7740835 L30.7533849,28.7740835 C31.4267823,28.7740835 31.9573559,28.2230831 31.9573559,27.5701125 L31.9573559,25.835568 L33.7531482,25.835568 C34.4469725,25.835568 34.9979401,25.2642064 34.9979401,24.5907761 L34.9979401,13.2447919 C35.038761,12.5713944 34.4673666,12 33.7735422,12 L33.7735094,12 Z M27.386266,16.3465911 C27.386266,15.9384476 27.7331618,15.5915518 28.1413054,15.5915518 C28.549449,15.5915518 28.8963447,15.9384476 28.8963447,16.3465911 L28.8963447,21.5298306 C28.8963447,21.9379742 28.549449,22.28487 28.1413054,22.28487 C27.7331618,22.28487 27.386266,21.9379742 27.386266,21.5298306 L27.386266,16.3465911 L27.386266,16.3465911 Z M23.6314305,16.3465911 C23.6314305,15.9384476 23.9783263,15.5915518 24.3864699,15.5915518 C24.7946135,15.5915518 25.1415092,15.9384476 25.1415092,16.3465911 L25.1415092,21.5298306 C25.1415092,21.9379742 24.7946135,22.28487 24.3864699,22.28487 C23.9783263,22.28487 23.6314305,21.9379742 23.6314305,21.5298306 L23.6314305,16.3465911 L23.6314305,16.3465911 Z M19.8766607,16.3465911 C19.8766607,15.9384476 20.2235565,15.5915518 20.6317001,15.5915518 C21.0398436,15.5915518 21.3867394,15.9384476 21.3867394,16.3465911 L21.3867394,21.5298306 C21.3867394,21.9379742 21.0398436,22.28487 20.6317001,22.28487 C20.2235565,22.28487 19.8766607,21.9379742 19.8766607,21.5298306 L19.8766607,16.3465911 L19.8766607,16.3465911 Z M16.1218581,16.3465911 C16.1218581,15.9384476 16.4687538,15.5915518 16.8768974,15.5915518 C17.285041,15.5915518 17.6319367,15.9384476 17.6319367,16.3465911 L17.6319367,21.5298306 C17.6319367,21.9379742 17.285041,22.28487 16.8768974,22.28487 C16.4687538,22.28487 16.1218581,21.9379742 16.1218581,21.5298306 L16.1218581,16.3465911 L16.1218581,16.3465911 Z M12.3670882,21.5094038 L12.3670882,16.3465583 C12.3670882,15.9384147 12.713984,15.591519 13.1221276,15.591519 C13.5302712,15.591519 13.8771669,15.9384147 13.8771669,16.3465583 L13.8771669,21.5297978 C13.8771669,21.9379414 13.5302712,22.2848371 13.1221276,22.2848371 C12.713984,22.2644431 12.3670882,21.9379414 12.3670882,21.5093709 L12.3670882,21.5094038 Z M32.6511145,21.5094038 C32.6511145,21.9175473 32.3042188,22.2644431 31.8960752,22.2644431 C31.4879316,22.2644431 31.1410359,21.9175473 31.1410359,21.5094038 L31.1410359,16.3465583 C31.1410359,15.9384147 31.4879316,15.591519 31.8960752,15.591519 C32.3042188,15.591519 32.6511145,15.9384147 32.6511145,16.3465583 L32.6511145,21.5094038 Z" id="Shape" fill="#EE6B63" fill-rule="nonzero"></path>
                <circle id="Oval" stroke="#EE6B63" stroke-width="2" cx="22.5" cy="22.5" r="22.5"></circle>
            </g>
        </g>
    </g>
</svg>