<?xml version="1.0" encoding="UTF-8"?>
<svg width="47px" height="47px" viewBox="0 0 47 47" version="1.1" xmlns="http://www.w3.org/2000/svg" xmlns:xlink="http://www.w3.org/1999/xlink">
    <!-- Generator: Sketch 45.2 (43514) - http://www.bohemiancoding.com/sketch -->
    <title>securitygroup-red</title>
    <desc>Created with Sketch.</desc>
    <defs></defs>
    <g id="Page-1" stroke="none" stroke-width="1" fill="none" fill-rule="evenodd">
        <g id="Artboard-Copy" transform="translate(-403.000000, -575.000000)">
            <g id="securitygroup-red" transform="translate(404.000000, 576.000000)">
                <path d="M13.3858646,14.4524946 C13.4340101,14.4544204 13.7074765,14.469827 14.1215276,14.469827 C14.8456358,14.469827 16.2591872,14.4236073 17.5937801,14.1251053 C18.8590435,13.8439356 20.3265179,12.9792427 21.840212,11.6253916 C22.1236668,11.4828322 22.4483751,11.4936558 22.7145341,11.6465756 C22.8031218,11.7024244 23.0053328,11.8545641 23.2190987,12.016333 C24.1049757,12.6865181 25.5878567,13.8073451 27.0129631,14.1251053 C28.347556,14.4236073 29.7476267,14.4698269 30.4621057,14.469827 C30.9011926,14.469827 31.1804364,14.4524946 31.205472,14.4505687 L31.2690241,14.4505687 C31.4770126,14.4505687 31.6792236,14.5218241 31.8255859,14.6431507 C31.9623191,14.7625515 32.0393519,14.9127654 32.0393518,15.0706826 L32.0393518,18.7778851 C32.0393518,31.7367242 22.7973443,33.4006322 22.4064029,33.46611 C22.3068771,33.4818285 22.2055009,33.4818285 22.1059751,33.46611 C21.7169596,33.402558 12.5442815,31.7463533 12.5442815,18.7778851 L12.5442815,15.0706826 C12.5442815,14.9146912 12.6213143,14.7625515 12.7599733,14.6470023 C12.9167958,14.5184212 13.1137454,14.4489095 13.3165351,14.4505687 L13.3858646,14.4524946 Z" id="Shape" stroke="#FFFFFF" stroke-width="3" fill="#EE6B63" fill-rule="nonzero"></path>
                <path d="M22.256189,34.98173 C22.1162495,34.9816788 21.9765264,34.9707328 21.8382862,34.948991 C21.3934219,34.8758099 11.0171067,33.007765 11.0171067,18.8395113 L11.0171067,15.1958609 C11.0171067,14.5449339 11.3117571,13.9228942 11.8259509,13.4857332 C12.315109,13.0697562 12.9621843,12.8559903 13.6246662,12.8964325 C13.6670343,12.8983583 13.9019842,12.9099132 14.2601867,12.9099132 C14.9034104,12.9099132 16.1532672,12.8713968 17.3049072,12.613337 C17.8537658,12.4920104 19.0265898,12.0606268 20.7193851,10.5469327 C20.7828146,10.4882216 20.8503934,10.4341585 20.9215961,10.3851639 C21.7436157,9.89930365 22.7649107,9.89930365 23.5869303,10.3851639 C23.7486991,10.4814549 23.9489843,10.6355204 24.2263023,10.8435089 C24.9850752,11.4193289 26.2580418,12.3822387 27.301836,12.6152628 C28.5049542,12.8617063 29.7342474,12.9561678 30.960893,12.8964325 C31.6118199,12.8636935 32.2704502,13.0697562 32.7576825,13.4857332 C33.2718763,13.9209684 33.5665267,14.5449339 33.5665267,15.1958609 L33.5665267,18.8395113 C33.5665267,33.0000617 23.1208819,34.8758099 22.6760177,34.948991 C22.5371378,34.9707937 22.3967699,34.9817398 22.256189,34.98173 L22.256189,34.98173 Z M13.9173908,14.9878724 C13.7248089,14.9878724 13.5322269,15.0533503 13.3974195,15.1708252 C13.275813,15.2671652 13.2031682,15.4124549 13.1990601,15.567544 L13.1990601,19.0263158 C13.1990601,31.1223878 21.7535502,32.6688208 22.1194559,32.7285212 C22.2119694,32.7430599 22.3061861,32.7430599 22.3986997,32.7285212 C22.7646054,32.666895 31.3845732,31.1146845 31.3845732,19.0263158 L31.3845732,15.5656182 C31.3802954,15.4095945 31.306914,15.2635374 31.184288,15.1669736 C31.0378182,15.0483922 30.8546903,14.9843996 30.6662426,14.9859466 L30.608468,14.9878724 C30.5834323,14.9878724 30.3215209,15.003279 29.915173,15.003279 C28.8336669,15.008684 27.7545335,14.9015452 26.6952029,14.6835929 C25.3663874,14.3870167 23.9836491,13.3412967 23.1574725,12.7154054 C22.9571873,12.5651915 22.768457,12.4226809 22.6856468,12.3706837 C22.4372317,12.2279586 22.1341707,12.2178566 21.8768026,12.3437223 L21.8690993,12.3514256 C20.4574737,13.6147631 19.088216,14.4197557 17.9096145,14.6835929 C16.6655351,14.9628367 15.344423,15.0032789 14.6703862,15.003279 C14.2832965,15.003279 14.0290883,14.9897982 13.9828687,14.9878724 L13.9173908,14.9878724 Z" id="Shape" fill="#EE6B63" fill-rule="nonzero"></path>
                <circle id="Oval" stroke="#EE6B63" stroke-width="2" cx="22.5" cy="22.5" r="22.5"></circle>
            </g>
        </g>
    </g>
</svg>