<?xml version="1.0" encoding="UTF-8"?>
<svg width="47px" height="47px" viewBox="0 0 47 47" version="1.1" xmlns="http://www.w3.org/2000/svg" xmlns:xlink="http://www.w3.org/1999/xlink">
    <!-- Generator: Sketch 45.2 (43514) - http://www.bohemiancoding.com/sketch -->
    <title>volume - purple</title>
    <desc>Created with Sketch.</desc>
    <defs></defs>
    <g id="Page-1" stroke="none" stroke-width="1" fill="none" fill-rule="evenodd">
        <g id="Artboard-Copy" transform="translate(-348.000000, -65.000000)">
            <g id="volume---purple" transform="translate(349.000000, 66.000000)">
                <circle id="Oval" stroke="#968BCC" stroke-width="2" cx="22.5" cy="22.5" r="22.5"></circle>
                <path d="M13.0568681,10.1802413 C13.0063187,10.2981899 12.9894689,15.9260239 13.0063187,22.6996444 L13.0568681,35 L22.5770063,35 L32.0971446,35 L32.0971446,22.5311463 L32.0971446,10.0622927 L22.610706,10.0117433 C15.112544,9.97804367 13.1074175,10.0117433 13.0568681,10.1802413 Z M24.3630854,12.5560634 C24.8011802,12.6571622 26.6715083,13.5333519 26.7894569,13.6850002 C26.8400063,13.7355496 27.0759035,13.9377472 27.3286506,14.123095 C27.8678443,14.5443401 28.7777336,15.7238262 29.1821288,16.5494665 C29.4854253,17.1729092 30.0246189,19.2285851 29.9066703,19.3970831 C29.8729707,19.4644823 29.8224213,19.919427 29.8055715,20.4249211 C29.7213225,22.0088025 28.9630814,23.6432333 27.7330458,24.8901187 L27.0590537,25.5641107 L25.3740735,23.8285811 C23.5374451,21.9751029 23.3183976,21.8740041 22.1557613,22.3457985 C21.6165676,22.5816957 21.0605241,23.3399368 21.0605241,23.8454309 C21.0605241,24.0307787 21.9198641,25.968506 22.4085083,26.8615455 C22.5433067,27.0974427 22.4927573,27.1311424 22.0209629,27.0637431 C19.9989866,26.8278459 18.1286586,25.9011068 17.1345202,24.6710712 C16.9660222,24.4688736 16.730125,24.1992768 16.6121764,24.0813281 C16.3762791,23.8454309 15.5169392,22.0762017 15.3821408,21.537008 C15.3315914,21.3516602 15.281042,20.5765693 15.2473424,19.8520278 C15.1293938,16.6674152 17.067121,13.9208974 20.2517336,12.758261 C21.0942238,12.4549646 21.582868,12.3875654 22.6612554,12.421265 C23.4026467,12.4549646 24.1777376,12.505514 24.3630854,12.5560634 Z M26.1154648,26.3560514 C27.7667454,28.0410317 29.08103,29.5069645 29.0473304,29.6080633 C28.996781,29.6923123 28.4407375,30.1135573 27.800445,30.5348024 C27.1601526,30.9560475 26.6209589,31.3435929 26.6209589,31.4109921 C26.6209589,31.4952411 26.4524609,31.5457905 26.2502632,31.5457905 C25.9469668,31.5289407 25.761619,31.3098933 25.3572237,30.4168538 C25.0876269,29.7934111 24.649532,28.866672 24.4136348,28.3611779 C22.2737099,23.7611819 22.3074095,23.8622807 22.5770063,23.5421345 C22.694955,23.4073361 22.863453,23.2893874 22.9645518,23.2893874 C23.0656506,23.2893874 24.481034,24.6710712 26.1154648,26.3560514 Z M16.5953266,30.9054981 C17.1345202,31.1413953 17.319868,31.764838 17.1345202,32.7084269 C17.0165716,33.29817 16.2583305,33.6520158 15.4326902,33.5003676 C14.9945953,33.4161186 14.7923977,33.2476206 14.5902001,32.8095257 C13.9330578,31.4278419 15.1630934,30.2483558 16.5953266,30.9054981 Z M21.9704135,18.1838974 C22.779204,18.0153993 23.0993502,18.0827985 23.5879945,18.5208934 C24.4136348,19.2622847 24.2451368,20.7450673 23.3015478,21.115763 C22.4590577,21.452759 21.8524649,21.3348104 21.330121,20.7450673 C20.9088759,20.2732728 20.8751763,20.1216246 20.9594253,19.5150317 C21.0942238,18.7399408 21.4312198,18.2849962 21.9704135,18.1838974 Z" id="Combined-Shape" fill="#968BCC" fill-rule="nonzero"></path>
            </g>
        </g>
    </g>
</svg>