<?xml version="1.0" encoding="UTF-8"?>
<svg width="47px" height="47px" viewBox="0 0 47 47" version="1.1" xmlns="http://www.w3.org/2000/svg" xmlns:xlink="http://www.w3.org/1999/xlink">
    <!-- Generator: Sketch 45.2 (43514) - http://www.bohemiancoding.com/sketch -->
    <title>wait- purple</title>
    <desc>Created with Sketch.</desc>
    <defs></defs>
    <g id="Page-1" stroke="none" stroke-width="1" fill="none" fill-rule="evenodd">
        <g id="Artboard-Copy" transform="translate(-458.000000, -65.000000)">
            <g id="wait--purple" transform="translate(459.000000, 66.000000)">
                <path d="M31.6219085,33.0351706 L30.8175131,33.0351706 C30.6756527,30.1059867 30.0154561,27.8993557 29.0543907,26.2437978 L29.04114,26.2110607 C28.032528,24.4798959 26.6988842,23.3496893 25.2943101,22.6614324 C26.6988842,21.9607043 28.032528,20.8429688 29.04114,19.1133629 L29.0543907,19.079067 C30.0474137,17.3556967 30.7294349,15.0266915 30.8323227,11.9073212 L31.6219085,11.9073212 C32.1597309,11.9073212 32.5837533,11.4848577 32.5837533,10.9532709 C32.5837533,10.4224635 32.1597309,10 31.6219085,10 L13.9821106,10 C13.4497443,10 13.0202658,10.4224635 13.0202658,10.9540503 C13.0202658,11.4856372 13.4497443,11.9081006 13.9813312,11.9081006 L14.7709169,11.9081006 C14.8854965,15.027471 15.554267,17.3564762 16.5488489,19.0798465 L16.5683352,19.1141424 C17.5761678,20.8437483 18.903576,21.9607043 20.3136063,22.6622118 C18.903576,23.3504687 17.5769472,24.4806754 16.5683352,26.2118402 L16.5496284,26.2437978 C15.597137,27.8993557 14.934602,30.1059867 14.7927416,33.0351706 L13.9821106,33.0351706 C13.4497443,33.0351706 13.0210452,33.4568546 13.0210452,33.9744113 C13.0202658,34.5192489 13.4497443,34.9424918 13.9821106,34.9424918 L31.6219085,34.9424918 C32.1597309,34.9424918 32.5837533,34.5192489 32.5837533,33.9744113 C32.5837533,33.4568546 32.1597309,33.0351706 31.6219085,33.0351706 M17.5434308,26.8221518 L17.5582404,26.7816202 C18.7157279,24.7924565 19.9800004,23.7316212 21.657383,23.2125056 L21.722857,23.171974 L21.7376667,23.171974 C21.7719626,23.1579439 21.8046996,23.1446932 21.8343188,23.1174123 L21.8460106,23.1049411 L21.8873216,23.0761013 L21.8935572,23.0628506 L21.9356477,23.0223191 L21.9426628,23.0082889 C21.9699436,22.9802286 21.9831943,22.9467121 22.0112546,22.9124162 L22.0112546,22.899945 C22.0383393,22.8593326 22.0527204,22.8115764 22.0525656,22.7627613 L22.0595807,22.7495106 L22.0595807,22.7074201 L22.0658163,22.6739036 L22.0658163,22.6474022 L22.0595807,22.6131063 L22.0595807,22.5858255 L22.0525656,22.5585446 C22.0525656,22.510998 22.0393149,22.4634514 22.0112546,22.4229198 L22.0112546,22.4088897 C21.9831943,22.3691376 21.9699436,22.3402978 21.9426628,22.3137964 L21.9356477,22.2927512 L21.8935572,22.2592347 L21.8873216,22.2592347 L21.8460106,22.2187032 L21.8343188,22.204673 C21.8046996,22.1836278 21.7719626,22.163362 21.7376667,22.1423168 L21.722857,22.1353017 L21.657383,22.1088003 C19.9807799,21.6052738 18.7165073,20.5288493 17.5582404,18.5264349 L17.5434308,18.5124048 C16.6431627,16.93791 16.0320717,14.7936351 15.9229483,11.9057623 L29.6818503,11.9057623 C29.5851981,14.7936351 28.9717687,16.9386894 28.0605883,18.5124048 L28.0465582,18.5264349 C26.8937474,20.5280699 25.6247981,21.6044943 23.9622251,22.1088003 L23.8803826,22.1353017 L23.8663524,22.1423168 C23.832836,22.163362 23.8047757,22.1836278 23.7697003,22.204673 L23.7564496,22.2187032 L23.7151386,22.2592347 L23.6683714,22.2927512 L23.6621358,22.3137964 C23.6403111,22.3402978 23.6208248,22.3683581 23.6067946,22.4088897 L23.5927645,22.4229198 C23.5795138,22.4642308 23.5654836,22.5117774 23.550674,22.5585446 L23.550674,22.7627613 C23.5654836,22.8103079 23.5795138,22.8578545 23.5927645,22.899945 L23.6067946,22.9124162 C23.6216042,22.9467121 23.6403111,22.9802286 23.6621358,23.0082889 L23.6683714,23.0223191 L23.7151386,23.0628506 L23.7151386,23.0761013 L23.7564496,23.1049411 L23.7697003,23.1174123 C23.7977606,23.1446932 23.832836,23.1587233 23.8663524,23.171974 L23.8803826,23.171974 L23.9622251,23.2125056 C25.6247981,23.7316212 26.8945268,24.7924565 28.0465582,26.7816202 L28.0605883,26.8221518 C28.5430696,27.6413568 28.9304577,28.6351592 29.2180758,29.7926467 C29.2788731,30.1231347 29.4838693,30.8488053 29.5399899,31.788046 C28.6249122,30.977415 26.0605123,30.383472 22.9949241,30.3374842 L22.9949241,21.3137584 C23.0262405,21.3041751 23.0569541,21.2927225 23.0868996,21.2794625 L23.0939146,21.2654323 L23.2575997,21.2038555 L23.2724093,21.1968404 L23.2864395,21.1968404 C24.3971598,20.8499839 25.2950895,20.2989107 26.0301136,19.5755785 C26.8228172,18.7992434 27.4206575,17.8327219 27.8283114,16.7687687 C27.9389937,16.4694588 27.8041483,16.1420886 27.5032795,16.0337447 C27.2039696,15.9113706 26.8695843,16.0610255 26.7526664,16.3611149 C26.3941181,17.2668391 25.8952682,18.0977358 25.2194826,18.7587119 C24.6193039,19.3448604 23.8796031,19.807076 22.9528337,20.0931352 L22.9255528,20.1063859 L22.8585199,20.120416 L22.8023993,20.1476969 L22.7478376,20.120416 L22.707306,20.1063859 L22.6535238,20.0931352 C21.7423434,19.8062965 20.9847152,19.3448604 20.392331,18.7587119 C19.7110892,18.0977358 19.2145777,17.2668391 18.853691,16.3611149 C18.7445676,16.0610255 18.4031673,15.9105911 18.118667,16.0337447 C17.8185776,16.1420886 17.6813939,16.4694588 17.7897379,16.7687687 C18.1997301,17.8319424 18.7858786,18.7992434 19.5879356,19.5755785 C20.3104884,20.2989107 21.2232278,20.8499839 22.3261536,21.1968404 L22.3331686,21.1968404 L22.3534344,21.2038555 L22.5030894,21.2654323 L22.5444004,21.2794625 C22.5654456,21.2895953 22.5880497,21.3005077 22.6129922,21.31142 L22.6129922,30.333587 C19.7407084,30.333587 17.2565921,30.8145094 16.0687059,31.5144581 C16.1100169,31.053022 16.2051102,30.5292296 16.3859433,29.7926467 C16.671223,28.6219085 17.0656262,27.6413568 17.5434308,26.8221518" id="Shape" fill="#968BCC" fill-rule="nonzero"></path>
                <circle id="Oval" stroke="#968BCC" stroke-width="2" cx="22.5" cy="22.5" r="22.5"></circle>
            </g>
        </g>
    </g>
</svg>